# Exported from Wings 3D 1.4.1
mtllib hAsteroid1_coll.mtl
o sphere2
#112 vertices, 121 faces
v 13.87830099 24.96366460 9.93042383
v 13.62948236 28.87872534 14.62407403
v 9.35502372 30.70801047 20.11470134
v 0.65339468 28.47332944 21.63655384
v -7.54542048 26.01452922 19.00473396
v -14.06198613 24.27575568 14.14534281
v -15.27355360 22.57149479 9.09906529
v -12.73589565 20.15065991 9.14193714
v -7.73012084 19.08411996 10.00796900
v 0.25805566 19.00682548 10.69165091
v 6.84032733 18.70545932 10.01328177
v 11.53011625 20.57015155 8.64926013
v 27.57392148 22.99516788 -8.11760296
v 24.63245343 26.10774091 20.37525815
v 18.64406268 31.13840866 34.51837941
v 0.79984688 30.15501721 40.68895222
v -17.34181526 25.59855729 31.68809643
v -33.89294026 26.87002631 18.67657154
v -35.69969842 28.01657252 -1.28401336
v -25.81332481 22.04276035 -1.98614430
v -16.53555621 15.10902458 6.26364507
v -2.97262006 14.77016425 11.84709216
v 10.96698634 14.88519301 4.41268302
v 21.57645896 23.27152179 -1.15694630
v 36.78025550 11.50904468 2.57451288
v 36.65398925 14.17038410 25.67314476
v 25.69564396 18.83323235 48.10330092
v 1.93507968 18.64612609 52.20980282
v -25.64840379 16.10906901 42.95774338
v -45.69776330 17.34730726 25.38129104
v -47.17759718 20.05898876 -1.99214901
v -34.28299798 16.73920355 -17.61269558
v -24.73220755 9.27629315 -3.62595984
v -3.74513487 3.76312675 11.89798308
v 16.07806542 9.03697893 -5.44030042
v 37.25586039 0.98703003 3.15244195
v 36.61457865 0.69183026 24.18833592
v 23.69911498 0.36755655 46.67576658
v 2.65220783 0.27805389 51.60157689
v -24.74493202 -0.38046255 41.72394523
v -44.05877591 -1.26134278 27.96867570
v -50.10804544 -2.36659915 2.51623214
v -39.33340558 -2.99755470 -18.07356126
v -24.45673575 -4.06331872 -11.40923472
v -3.68253496 -5.58403690 0.63774374
v 15.37803523 -6.6759125e-2 -18.11315015
v 42.19280394 -14.82361552 0.84688714
v 38.22275988 -15.09626186 22.48988848
v 22.46226336 -15.38486277 41.41508145
v 0.60682325 -14.91629891 45.98464756
v -22.47091246 -15.14369854 39.27546067
v -43.31288631 -17.08170663 25.79073876
v -48.58185445 -18.08429451 1.73271175
v -37.27505686 -16.11022867 -14.19765583
v -22.09655020 -13.92317759 -12.85064716
v -2.27422151 -10.96382479 -4.86654493
v 14.88123315 -9.85854988 -15.13223246
v 32.49972352 -20.92257527 -12.33173398
v 29.25935807 -24.79028672 18.57053316
v 17.48735257 -23.42230968 31.09408613
v 9.5526388e-2 -23.77268078 34.48404554
v -17.62948808 -23.81430478 31.20242064
v -35.96018758 -26.73779134 19.47743589
v -36.10478860 -27.04975086 2.32992887
v -26.66837952 -23.39831380 -6.66331428
v -14.80854564 -20.14708301 -8.83971613
v 1.69692042 -14.45270357 -4.43542365
v 13.20153057 -14.71463586 -7.91833076
v 25.21978902 -20.93580618 -10.31933206
v 15.40408532 -25.16925565 5.29475255
v 14.00840232 -26.30099399 12.38228759
v 8.46073763 -25.55668481 18.42601824
v 0.28010145 -26.66299836 20.64673104
v -8.22390636 -26.31864395 19.02247529
v -14.33940308 -25.69378741 13.21846663
v -15.64757321 -26.85239635 6.01134838
v -12.96235231 -26.08775599 1.13508400
v -7.41654220 -25.10260434 0.37691701
v 1.22308861 -22.14522554 1.40600653
v 8.32950861 -20.62998327 -0.33595718
v 14.10511439 -22.92708348 0.16501805
v 0.96924735 21.75570346 13.64168481
v 0.35755595 -26.77745160 7.93164523
v 32.86328970 19.27996681 -4.69339517
v 24.94238409 24.64679318 4.70452047
v 24.55017263 23.99279216 0.43426714
v 34.09300728 13.65428055 -12.86925427
v 22.63369755 13.36812610 -9.82982180
v 24.43676145 20.03095990 -8.39282142
v 33.57770342 1.87475948 -6.30971052
v 17.54570205 0.59059691 -22.50283231
v 39.02108480 -14.15857232 -4.14467767
v 16.12116722 -13.45609721 -16.63946631
v 24.76211935 -21.02485830 -14.62325189
v 39.38490409 -18.21985211 -1.89079628
v 30.56015771 -22.97568363 1.56411835
v 27.16515253 -22.12019220 -5.50510313
v 16.24684729 10.82857843 -37.13377453
v 16.78471427 13.26558097 -36.12426067
v 14.85366574 12.22809519 -35.57728393
v 10.06807246 10.13521521 -38.88485038
v 15.80972542 5.08090618 -37.87522150
v 9.60595586 3.97785987 -39.40976201
v 17.88318036 3.87429711 -38.53594058
v 14.93913346 3.08579713 -38.10264924
v 20.10797541 -8.37957116 -33.77421991
v 26.57731723 -9.55398917 -34.41213294
v 18.85663188 -2.50129068 -26.51353875
v 26.36257604 -2.41335947 -27.80792626
v 17.73884975 12.14174945 -26.57207639
v 13.71210374 11.07275937 -30.45889209
v 20.79621641 17.56718451 -26.25275342
vn -0.23506646 0.83458706 -0.49820498
vn -8.1683321e-2 0.90147780 -0.42504778
vn -0.13896458 0.91865938 -0.36980237
vn -0.17415642 0.91303396 -0.36883402
vn -1.9221264e-2 0.94044679 -0.33939708
vn 0.12967083 0.96173869 -0.24133830
vn 0.30338790 0.81017652 -0.50156733
vn 0.40857685 0.38977628 -0.82531170
vn 0.30788464 0.29295506 -0.90519853
vn -6.3735876e-3 0.49091662 -0.87118325
vn -0.35345776 0.51688487 -0.77967791
vn -0.47094875 0.51824301 -0.71388476
vn 0.12632744 0.97306214 -0.19285084
vn 0.49789469 0.86403492 -7.4461620e-2
vn 0.28569968 0.94323939 0.16933739
vn -0.14876552 0.94190035 0.30115205
vn -0.23214017 0.94379036 0.23530981
vn -0.18590137 0.97440436 0.12639946
vn 5.4722129e-3 0.95835654 -0.28552196
vn 0.50150766 0.50033405 -0.70580160
vn 0.56055439 7.4229828e-2 -0.82478404
vn -3.2929689e-2 0.23169276 -0.97223151
vn -0.56991334 0.41880143 -0.70696828
vn -0.47746023 0.69102430 -0.54269434
vn 0.96138984 0.25863196 -9.4016375e-2
vn 0.91884207 0.35302528 0.17635875
vn 0.59759923 0.39085979 0.70007412
vn -9.5754310e-2 0.39339489 0.91436949
vn -0.46121983 0.41580387 0.78382613
vn -0.74879316 0.49081642 0.44543018
vn -0.77916524 0.56288114 -0.27580130
vn 0.20135382 0.41705338 -0.88629742
vn 0.64692079 0.25211398 -0.71967495
vn -4.8199452e-2 0.52499265 -0.84974086
vn -0.66874340 0.49709751 -0.55288003
vn 0.98539078 0.10585251 -0.13341758
vn 0.95321206 -2.0401477e-3 0.30229557
vn 0.57169162 -0.16921368 0.80282963
vn -5.8715581e-2 -0.18768472 0.98047281
vn -0.45480736 -0.12909138 0.88118425
vn -0.84425227 -6.1606228e-2 0.53239343
vn -0.98163542 -2.4801957e-2 -0.18914747
vn -0.26053525 -6.4440497e-3 -0.96544283
vn 0.47981598 0.27667084 -0.83260427
vn -0.10692980 0.53864442 -0.83572017
vn -0.76351053 0.33065199 -0.55472599
vn 0.96432441 -0.15004173 -0.21809613
vn 0.84280440 -0.41310148 0.34500423
vn 0.44958822 -0.55556571 0.69944061
vn -3.5496410e-2 -0.57277371 0.81894461
vn -0.34627613 -0.49817506 0.79493047
vn -0.70954861 -0.48802882 0.50829975
vn -0.83271627 -0.51795664 -0.19571545
vn -0.26284171 -0.47407604 -0.84033692
vn 0.28808826 -5.7856537e-2 -0.95585447
vn -6.8374752e-2 -5.7757222e-2 -0.99598644
vn -0.69424552 -0.40464348 -0.59521997
vn 0.42754954 -0.84680063 -0.31643336
vn 0.34490200 -0.92653593 0.15024571
vn 0.19040225 -0.91709616 0.35025935
vn 2.4345065e-3 -0.91289072 0.40819677
vn -0.13121323 -0.90215666 0.41097012
vn -0.25341230 -0.93537163 0.24670249
vn -0.26819830 -0.94907473 -0.16530826
vn -3.8310556e-2 -0.83080504 -0.55524345
vn 0.24155183 -0.55802543 -0.79388937
vn 6.5116688e-2 -0.55327710 -0.83044824
vn -0.38709772 -0.71419636 -0.58316285
vn -0.47560643 -0.83154763 -0.28692693
vn 5.3204427e-2 -0.97243910 -0.22700549
vn 6.0765989e-2 -0.99814357 4.1113108e-3
vn 6.4788233e-2 -0.99204988 0.10788659
vn 3.4882951e-2 -0.99524710 9.0919707e-2
vn -3.8357550e-2 -0.99678039 7.0409905e-2
vn -1.1590735e-2 -0.99700441 7.6471335e-2
vn 1.6581652e-2 -0.99848343 -5.2496614e-2
vn 7.2076381e-2 -0.94315634 -0.32443968
vn 0.23851221 -0.81559452 -0.52717882
vn 0.14646209 -0.74604764 -0.64958584
vn -0.18391514 -0.71673286 -0.67265833
vn -0.16640402 -0.83101461 -0.53077719
vn -8.5670088e-2 0.68159062 -0.72670135
vn 3.5236480e-2 -0.97403613 -0.22363364
vn 0.76093083 0.63116962 -0.15036353
vn 0.28410850 0.95193278 -0.11448294
vn -0.30130384 0.92133343 -0.24568417
vn 0.91492565 0.16580317 -0.36799506
vn -0.89941639 0.42741763 -9.1456703e-2
vn -0.67311021 0.70591694 -0.22046295
vn 0.91321390 0.10412956 -0.39395103
vn -0.98456279 -3.6181105e-2 -0.17125137
vn 0.89413530 0.11458192 -0.43288919
vn -0.81219163 -0.49881588 -0.30253508
vn -0.57971021 -0.77652382 -0.24687412
vn 0.79864094 -0.54073619 -0.26415339
vn 0.28392282 -0.95509240 -8.4772286e-2
vn -0.12588524 -0.97031003 -0.20652206
vn 0.50678558 0.33988715 -0.79224056
vn -6.8353836e-2 0.87797535 -0.47380063
vn -0.48087785 0.86080092 -0.16666814
vn -0.48624225 0.72452791 -0.48849543
vn 0.57704754 9.9451099e-2 -0.81063285
vn -0.60295110 -0.21380849 -0.76859346
vn 0.45476832 -0.19343529 -0.86934951
vn -0.29834958 -0.63136312 -0.71579895
vn -0.47115081 -0.35446828 -0.80769373
vn 0.49757056 -0.11308177 -0.86002096
vn -0.62227826 -0.47174955 -0.62467762
vn 0.66939752 8.8049645e-2 -0.73766809
vn -0.72767433 0.67440782 0.12515652
vn -0.81237699 0.51539417 0.27278651
vn -0.43887021 0.88532661 -0.15358947
g sphere2_default
usemtl default
s 1
f 1//1 82//82 2//2
f 1//1 86//86 24//24 12//12
f 2//2 14//14 85//85 1//1
f 2//2 82//82 3//3
f 3//3 15//15 14//14 2//2
f 3//3 82//82 4//4
f 4//4 16//16 15//15 3//3
f 4//4 82//82 5//5
f 5//5 17//17 16//16 4//4
f 5//5 82//82 6//6
f 6//6 18//18 17//17 5//5
f 6//6 82//82 7//7
f 7//7 19//19 18//18 6//6
f 7//7 82//82 8//8
f 8//8 20//20 19//19 7//7
f 8//8 82//82 9//9
f 9//9 21//21 20//20 8//8
f 9//9 82//82 10//10
f 10//10 22//22 21//21 9//9
f 10//10 82//82 11//11
f 11//11 23//23 22//22 10//10
f 11//11 82//82 12//12
f 12//12 24//24 23//23 11//11
f 12//12 82//82 1//1
f 13//13 86//86 85//85
f 13//13 112//112 110//110 89//89 86//86
f 15//15 27//27 26//26 14//14
f 16//16 28//28 27//27 15//15
f 17//17 29//29 28//28 16//16
f 18//18 30//30 29//29 17//17
f 19//19 31//31 30//30 18//18
f 20//20 32//32 31//31 19//19
f 21//21 33//33 32//32 20//20
f 22//22 34//34 33//33 21//21
f 23//23 35//35 34//34 22//22
f 24//24 86//86 89//89
f 24//24 89//89 88//88 35//35 23//23
f 25//25 36//36 90//90 87//87
f 26//26 25//25 84//84 85//85 14//14
f 26//26 37//37 36//36 25//25
f 27//27 38//38 37//37 26//26
f 28//28 39//39 38//38 27//27
f 29//29 40//40 39//39 28//28
f 30//30 41//41 40//40 29//29
f 31//31 42//42 41//41 30//30
f 32//32 43//43 42//42 31//31
f 33//33 44//44 43//43 32//32
f 34//34 45//45 44//44 33//33
f 35//35 46//46 45//45 34//34
f 36//36 47//47 92//92 90//90
f 37//37 48//48 47//47 36//36
f 38//38 49//49 48//48 37//37
f 39//39 50//50 49//49 38//38
f 40//40 51//51 50//50 39//39
f 41//41 52//52 51//51 40//40
f 42//42 53//53 52//52 41//41
f 43//43 54//54 53//53 42//42
f 44//44 55//55 54//54 43//43
f 45//45 56//56 55//55 44//44
f 46//46 57//57 56//56 45//45
f 47//47 95//95 92//92
f 48//48 59//59 96//96 95//95 47//47
f 49//49 60//60 59//59 48//48
f 50//50 61//61 60//60 49//49
f 51//51 62//62 61//61 50//50
f 52//52 63//63 62//62 51//51
f 53//53 64//64 63//63 52//52
f 54//54 65//65 64//64 53//53
f 55//55 66//66 65//65 54//54
f 56//56 67//67 66//66 55//55
f 57//57 68//68 67//67 56//56
f 58//58 95//95 96//96
f 60//60 72//72 71//71 59//59
f 61//61 73//73 72//72 60//60
f 62//62 74//74 73//73 61//61
f 63//63 75//75 74//74 62//62
f 64//64 76//76 75//75 63//63
f 65//65 77//77 76//76 64//64
f 66//66 78//78 77//77 65//65
f 67//67 79//79 78//78 66//66
f 68//68 80//80 79//79 67//67
f 69//69 81//81 80//80 68//68
f 69//69 97//97 70//70 81//81
f 70//70 83//83 81//81
f 70//70 97//97 96//96
f 71//71 70//70 96//96 59//59
f 71//71 83//83 70//70
f 72//72 83//83 71//71
f 73//73 83//83 72//72
f 74//74 83//83 73//73
f 75//75 83//83 74//74
f 76//76 83//83 75//75
f 77//77 83//83 76//76
f 78//78 83//83 77//77
f 79//79 83//83 78//78
f 80//80 83//83 79//79
f 81//81 83//83 80//80
f 84//84 87//87 98//98 99//99 112//112 13//13
f 85//85 84//84 13//13
f 85//85 86//86 1//1
f 87//87 84//84 25//25
f 87//87 90//90 102//102 98//98
f 88//88 89//89 110//110 111//111
f 88//88 91//91 46//46 35//35
f 90//90 92//92 109//109 104//104 102//102
f 91//91 93//93 57//57 46//46
f 92//92 95//95 58//58 107//107 109//109
f 93//93 94//94 69//69 68//68 57//57
f 94//94 97//97 69//69
f 96//96 97//97 58//58
f 97//97 94//94 106//106 107//107 58//58
f 100//100 99//99 98//98 101//101
f 100//100 110//110 112//112 99//99
f 101//101 111//111 110//110 100//100
f 102//102 104//104 105//105 103//103
f 103//103 101//101 98//98 102//102
f 103//103 105//105 108//108 93//93 91//91
f 104//104 109//109 108//108 105//105
f 106//106 108//108 109//109 107//107
f 108//108 106//106 94//94 93//93
f 111//111 101//101 103//103 91//91 88//88
