# Exported from Wings 3D 1.4.1
mtllib sAsteroid2_coll.mtl
o sphere1
#180 vertices, 182 faces
v 0.25479356 0.68415022 0.27666382
v 0.23506629 0.68415022 0.36395697
v 0.12891049 0.83232327 0.16858442
v 0.12752622 0.75065836 0.39643248
v -4.6318625e-2 0.87037302 0.36759525
v 2.1370421e-2 0.89883142 0.20105993
v -0.18050412 0.93688116 0.25905494
v -0.24819317 0.93688116 9.2519623e-2
v -0.11281508 0.96533956 9.2519623e-2
v -0.24819317 0.93688116 -9.2519623e-2
v -0.18050412 0.93688116 -0.25905494
v -0.11281508 0.96533956 -9.2519623e-2
v -6.7689046e-2 0.93688116 -0.35157457
v 6.7689046e-2 0.93688116 -0.35157457
v -9.7144515e-17 0.96533956 -0.18503925
v 0.17522911 0.87037302 -0.19901083
v 0.23342314 0.75065836 7.5603889e-2
v 0.10754007 0.89883142 -3.2475511e-2
v 0.21198167 -0.90975139 0.18703767
v 0.26085316 -0.90975139 6.6799168e-2
v 0.16311018 -0.93029835 6.6799168e-2
v -4.4119203e-2 -0.92301320 0.32585411
v 0.10306297 -0.91448775 0.27955729
v 5.4191478e-2 -0.93503471 0.15931879
v -0.23118115 -0.92774956 9.2519623e-2
v -0.16349210 -0.92774956 0.25905494
v -6.5181421e-2 -0.93977107 9.2519623e-2
v -0.16349210 -0.92774956 -0.25905494
v -0.23118115 -0.92774956 -9.2519623e-2
v -6.5181421e-2 -0.93977107 -9.2519623e-2
v 0.10306297 -0.91448775 -0.27955729
v -4.4119203e-2 -0.92301320 -0.32585411
v 5.4191478e-2 -0.93503471 -0.15931879
v 0.26085316 -0.90975139 -6.6799168e-2
v 0.21198167 -0.90975139 -0.18703767
v 0.16311018 -0.93029835 -6.6799168e-2
v 0.31017030 0.57930339 0.48206845
v 0.34204798 0.59088683 0.30554697
v 0.38107059 0.56899678 0.22382658
v 0.33804359 0.53424644 0.52060926
v -9.0512228e-2 0.74184544 0.51608757
v 0.16598356 0.62962292 0.55224864
v 0.16357953 0.52558551 0.65320863
v -0.14232157 0.54301397 0.62162469
v -0.38283021 0.84977105 0.12450176
v -0.27345015 0.81522815 0.37350528
v -0.36909016 0.60354256 0.45437454
v -0.51672622 0.70717126 0.15145818
v -0.24369352 0.74265444 -0.18401184
v -0.37291134 0.85131882 -0.14082150
v -0.48696959 0.71181460 -0.20041740
v -0.27982027 0.60410679 -0.42702132
v 8.9542309e-2 0.81944941 -0.51899859
v -8.9542309e-2 0.74339541 -0.23846675
v -8.8122805e-2 0.61449303 -0.51549468
v 8.8122805e-2 0.61620637 -0.66880740
v 0.31326127 0.65364641 3.6905648e-2
v 0.22381017 0.76758210 -0.32385553
v 0.23283023 0.62022397 -0.44953119
v 0.34599947 0.59765596 -9.9553565e-2
v 0.36129240 0.46600219 0.56460346
v 0.41361892 0.50567277 0.19120765
v 0.43969299 0.40091478 0.20769019
v 0.37991673 0.37457064 0.61405106
v -8.4425943e-2 0.41245228 0.71834408
v 0.19527744 0.43492870 0.74031561
v 0.26107729 0.35765250 0.81356958
v 8.3174660e-2 0.35016036 0.80624574
v -0.59470436 0.56837694 0.17683958
v -0.34775321 0.45693503 0.53051874
v -0.20943932 0.37540556 0.60193786
v -0.61676465 0.43338809 0.20064595
v -0.32071367 0.48709787 -0.59041724
v -0.58569118 0.53636666 -0.18238985
v -0.66907611 0.41256246 -0.23315031
v -0.36637371 0.39580944 -0.67516389
v 9.4112454e-2 0.46220585 -0.76604563
v -9.4112454e-2 0.51841140 -0.70064532
v -0.10751126 0.45375436 -0.79302048
v 0.10751126 0.35744787 -0.81071330
v 0.37689287 0.51395014 -0.17248069
v 0.25111423 0.49083430 -0.52646158
v 0.27866216 0.37941311 -0.55464671
v 0.40594147 0.40252894 -0.18187574
v 0.39249890 0.27492943 0.64745671
v 0.45730802 0.28675056 0.21882540
v 0.46646402 0.16318010 0.22461330
v 0.39903890 0.16707856 0.66482039
v 0.16566696 0.26901887 0.86177236
v 0.29528521 0.26901887 0.86177236
v 0.29790121 0.16902780 0.88492394
v 0.16305096 0.16902780 0.88492394
v -0.64191298 0.28185976 0.21544309
v -0.14673243 0.27329916 0.64632927
v -0.15963256 0.15061585 0.66369296
v -0.67014935 0.11379196 0.22123099
v -0.39722057 0.28966447 -0.73852711
v -0.72540902 0.26800280 -0.26116390
v -0.75468992 0.10499880 -0.27186226
v -0.41325425 0.17112957 -0.78249358
v 0.11656317 0.24328365 -0.84088973
v -0.11656317 0.37396318 -0.86853125
v -0.12126821 0.27984693 -0.92754314
v 0.12126821 0.11971318 -0.85657492
v 0.42556603 0.28110321 -0.18822281
v 0.29727291 0.25798738 -0.57368793
v 0.30694646 0.12655712 -0.58358523
v 0.43576654 0.14967295 -0.19152191
v 0.39903890 5.9227696e-2 0.66482039
v 0.46646402 3.9609632e-2 0.22461330
v 0.45730802 -8.3960832e-2 0.21882540
v 0.39249890 -4.8623173e-2 0.64745671
v 0.16305096 6.9036727e-2 0.88492394
v 0.29790121 6.9036727e-2 0.88492394
v 0.29528521 -3.0954343e-2 0.86177236
v 0.16566696 -3.0954343e-2 0.86177236
v -0.67014935 -5.4275832e-2 0.22123099
v -0.15963256 2.7932541e-2 0.66369296
v -0.14673243 -9.4750771e-2 0.64632927
v -0.64191298 -0.22234363 0.21544309
v -0.41325425 5.0833030e-2 -0.80657549
v -0.75468992 -6.3069000e-2 -0.27186226
v -0.72540902 -0.23612821 -0.26970660
v -0.39722057 -7.0539310e-2 -0.81411805
v 0.12126821 -3.8572829e-3 -0.85657492
v -0.12126821 0.17916019 -0.96619530
v -0.11656317 7.2219785e-2 -0.98530972
v 0.11656317 -0.12742775 -0.84088973
v 0.43576654 1.8242685e-2 -0.19152191
v 0.30694646 -4.8731467e-3 -0.58358523
v 0.29727291 -0.13630341 -0.57368793
v 0.42556603 -0.11318758 -0.18822281
v 0.38758838 -0.26248702 0.59016704
v 0.46531514 -0.29488512 0.19897722
v 0.49048537 -0.59316322 0.16506875
v 0.38430735 -0.58236386 0.49295139
v 8.2848760e-2 -0.21337859 0.79837835
v 0.26009959 -0.23531818 0.78996741
v 0.19234434 -0.54405479 0.66950911
v -8.5403643e-2 -0.47823603 0.69474191
v -0.61676465 -0.39738671 0.20064595
v -0.20943932 -0.26740144 0.60193786
v -0.34775321 -0.49001946 0.53051874
v -0.59470436 -0.57940509 0.17683958
v -0.39613034 -0.25605410 -0.73824999
v -0.67899499 -0.41823349 -0.24573338
v -0.61544781 -0.61222567 -0.20590979
v -0.40998355 -0.50388255 -0.57428341
v 0.12527467 -0.31651551 -0.76705324
v -0.12804045 -0.13511968 -0.93020624
v -0.15570005 -0.43975712 -0.79316418
v 0.14740270 -0.57112057 -0.63506547
v 0.44111695 -0.31975260 -0.17695857
v 0.31499381 -0.33708947 -0.53764035
v 0.36010915 -0.60723134 -0.47544249
v 0.48241930 -0.60145238 -0.15772921
v 0.34814079 -0.78131081 0.39337692
v 0.45473402 -0.78131081 0.13112564
v 0.35806111 -0.85932787 9.7147881e-2
v 0.27908870 -0.85932787 0.29144364
v -0.14774305 -0.68684539 0.58550018
v 0.14731510 -0.74982233 0.54483510
v 0.12501185 -0.85262080 0.41594540
v -0.10416947 -0.83920667 0.47065316
v -0.51672622 -0.73307844 0.15145818
v -0.36909016 -0.68126409 0.45437454
v -0.27345015 -0.84113532 0.37350528
v -0.38283021 -0.85840677 0.12450176
v -0.36909016 -0.70879205 -0.51531844
v -0.51672622 -0.78687911 -0.22345989
v -0.38283021 -0.93471775 -0.30395902
v -0.27345015 -0.86970769 -0.57771402
v 0.14731510 -0.74982233 -0.51467882
v -0.14774305 -0.66929455 -0.72882261
v -0.10416947 -0.83920667 -0.44049688
v 0.12501185 -0.85262080 -0.40589331
v 0.45473402 -0.78131081 -0.13112564
v 0.34814079 -0.78131081 -0.39337692
v 0.27908870 -0.85932787 -0.29144364
v 0.35806111 -0.85932787 -9.7147881e-2
vn 0.70903557 0.68992072 0.14586967
vn 0.62361671 0.73880405 0.25548144
vn 0.58434411 0.78993436 0.18586468
vn 0.47602456 0.77589974 0.41398093
vn 0.23135540 0.84495154 0.48221528
vn 0.42071650 0.87001343 0.25704914
vn -0.17588848 0.92384897 0.33995047
vn -0.38511078 0.91801904 9.4502572e-2
vn 4.9530297e-2 0.99099053 0.12443677
vn -0.43575127 0.87017666 -0.23002916
vn -0.45549331 0.66390824 -0.59308658
vn -4.2324601e-2 0.99891347 -1.9506533e-2
vn -0.43301893 0.62679618 -0.64778172
vn 0.18211522 0.90087901 -0.39401910
vn 0.18863202 0.98158574 -3.0123123e-2
vn 0.70646615 0.70740333 -2.2048009e-2
vn 0.74860191 0.65445143 0.10624737
vn 0.56266965 0.81688530 0.12689083
vn 0.25709670 -0.95056756 0.17413385
vn 0.32415377 -0.94387991 6.3364416e-2
vn 0.14804314 -0.98776510 4.9023851e-2
vn -2.9994634e-3 -0.95935622 0.28218193
vn 0.15540477 -0.95223064 0.26288052
vn 6.9315634e-2 -0.99451110 7.8377358e-2
vn -0.20851283 -0.97374461 9.1344634e-2
vn -0.18142246 -0.96478490 0.19046254
vn -2.5944254e-2 -0.99934324 2.5297932e-2
vn 4.7211896e-2 -0.98721371 -0.15225023
vn -8.9635896e-2 -0.99593786 -8.5544218e-3
vn -2.5944254e-2 -0.99934324 -2.5297932e-2
vn 0.15237788 -0.94725974 -0.28192191
vn 0.10257498 -0.95399471 -0.28173118
vn 6.9315634e-2 -0.99451110 -7.8377358e-2
vn 0.32415377 -0.94387991 -6.3364416e-2
vn 0.25668910 -0.95004998 -0.17752674
vn 0.14804314 -0.98776510 -4.9023851e-2
vn 0.62393986 0.69948554 0.34845235
vn 0.74202296 0.66010941 0.11686528
vn 0.83983383 0.53742670 7.6496300e-2
vn 0.67838307 0.61116332 0.40776930
vn -6.5326656e-2 0.66711203 0.74208758
vn 0.34048968 0.69572952 0.63247704
vn 0.23002724 0.64329981 0.73024162
vn -0.24783837 0.52211288 0.81607247
vn -0.64877622 0.73905901 0.18133176
vn -0.46786870 0.68338897 0.56042698
vn -0.59840863 0.45405375 0.66010780
vn -0.80250574 0.54570132 0.24123561
vn -0.38664551 0.48536865 -0.78416996
vn -0.55100432 0.72772087 -0.40843185
vn -0.62737232 0.68298778 -0.37407442
vn -0.29665376 0.77896220 -0.55246216
vn 5.8872022e-2 0.66093558 -0.74812983
vn -0.59098798 0.37330927 -0.71510377
vn -0.37662311 0.77219315 -0.51173506
vn 0.19482114 0.69143496 -0.69567408
vn 0.82153348 0.56998727 -1.4044511e-2
vn 0.82973058 0.50278328 -0.24239666
vn 0.83464342 0.40474237 -0.37356923
vn 0.86586349 0.48247041 -0.13229784
vn 0.76249663 0.52269627 0.38129714
vn 0.93909028 0.34083036 4.4092119e-2
vn 0.97681925 0.21098713 3.6174303e-2
vn 0.86041284 0.38777828 0.33063235
vn -0.35099426 0.36076361 0.86409065
vn 0.22646926 0.68801316 0.68945599
vn 0.34532247 0.61964099 0.70483859
vn -0.36208680 0.22879975 0.90362815
vn -0.90280439 0.29279637 0.31498337
vn -0.68686577 4.7683004e-2 0.72521841
vn -0.65643730 -0.11593399 0.74541893
vn -0.89763894 0.15474218 0.41267323
vn -0.47875478 0.71059194 -0.51560930
vn -0.78836113 0.54643413 -0.28265964
vn -0.86163871 0.46012196 -0.21416470
vn -0.55938544 0.62096765 -0.54907841
vn 0.38118498 0.59108962 -0.71085236
vn -0.22846505 0.75156639 -0.61883090
vn -0.13769925 0.64745533 -0.74956022
vn 0.51479643 0.44013748 -0.73570621
vn 0.91688772 0.34666413 -0.19784055
vn 0.83110228 0.35534708 -0.42778202
vn 0.85971488 0.25369855 -0.44331408
vn 0.95363821 0.21750043 -0.20800895
vn 0.93522530 0.19476868 0.29566671
vn 0.99199191 0.12091811 3.6480995e-2
vn 0.99849475 3.9437040e-2 3.8117603e-2
vn 0.95675723 5.1114665e-2 0.28636147
vn -0.30851340 0.24210070 0.91989496
vn 0.49202897 0.36478568 0.79046752
vn 0.53958451 0.10303884 0.83560251
vn -0.29601058 0.10828165 0.94902730
vn -0.86444786 0.17199444 0.47238524
vn -0.61621900 0.10183825 0.78096294
vn -0.61081515 8.4756684e-2 0.78722370
vn -0.86869450 8.4588971e-2 0.48807231
vn -0.64583241 0.43191331 -0.62956445
vn -0.93465221 0.29508965 -0.19836162
vn -0.97265161 0.12005021 -0.19883863
vn -0.69059423 0.23908968 -0.68258021
vn 0.59379272 0.28498335 -0.75245910
vn -9.4663442e-2 0.48859937 -0.86735776
vn -6.2770671e-2 0.31275980 -0.94775585
vn 0.64031393 0.14545261 -0.75421589
vn 0.97139463 0.12511719 -0.20183697
vn 0.88385323 0.14666365 -0.44417705
vn 0.89521652 4.7998935e-2 -0.44303893
vn 0.97960909 4.0851295e-2 -0.19671604
vn 0.95599269 -5.1452619e-2 0.28884358
vn 0.99838409 -3.9556922e-2 4.0797859e-2
vn 0.99845629 -3.1181802e-2 4.5964452e-2
vn 0.94284467 -0.11626346 0.31229270
vn -0.28904240 -0.10836752 0.95116296
vn 0.53829604 -0.10321903 0.83641090
vn 0.50797386 -0.26389145 0.81995357
vn -0.28680794 -0.20079735 0.93670787
vn -0.86465366 -8.4120223e-2 0.49527552
vn -0.59972183 -8.4700683e-2 0.79571321
vn -0.60117862 -0.10370947 0.79235637
vn -0.86064848 -0.14867745 0.48701049
vn -0.69955757 5.4953431e-2 -0.71246005
vn -0.97743772 -6.4187098e-2 -0.20123498
vn -0.95896362 -0.19505849 -0.20576921
vn -0.66890647 -0.15335446 -0.72735585
vn 0.66446239 1.6374832e-2 -0.74714228
vn -3.5590493e-2 0.13006729 -0.99086620
vn -3.9294091e-2 -0.14254088 -0.98900863
vn 0.63300927 -0.12963588 -0.76321281
vn 0.98039873 -4.0812071e-2 -0.19275037
vn 0.89651265 -4.7929608e-2 -0.44041779
vn 0.88867585 -6.7125812e-2 -0.45359603
vn 0.98035645 -1.6329221e-2 -0.19655684
vn 0.90386849 -0.14884370 0.40108267
vn 0.99665946 3.2871277e-2 7.4762240e-2
vn 0.98700636 -9.0922244e-2 0.13248242
vn 0.81020909 -0.28907291 0.50990007
vn -0.29384095 -0.17807875 0.93911951
vn 0.42986833 -0.34132798 0.83588781
vn 0.31741564 -0.43902212 0.84053964
vn -0.27996896 -0.28719549 0.91604374
vn -0.89297428 -0.10381133 0.43797276
vn -0.64034120 9.4001288e-3 0.76803306
vn -0.67138578 -0.11657705 0.73188177
vn -0.89979874 -0.24263589 0.36261558
vn -0.63617659 -0.32186442 -0.70120086
vn -0.93841485 -0.26638559 -0.22003703
vn -0.90167475 -0.36575224 -0.23066848
vn -0.67165852 -0.34346634 -0.65643409
vn 0.53711423 -0.26250083 -0.80162437
vn -8.5004402e-2 -0.37415342 -0.92346276
vn -0.12150785 -0.40929706 -0.90427416
vn 0.45185815 -0.36422521 -0.81434895
vn 0.97650174 7.7667963e-2 -0.20102746
vn 0.85876040 -4.1242201e-2 -0.51071484
vn 0.78765018 -0.20032520 -0.58264655
vn 0.97961880 -4.3816657e-2 -0.19602835
vn 0.60881478 -0.63542663 0.47495006
vn 0.82627169 -0.54376317 0.14695821
vn 0.52085334 -0.84777265 9.9966658e-2
vn 0.39260626 -0.86493440 0.31264806
vn -0.23027493 -0.53922229 0.81006961
vn 0.21722373 -0.64510082 0.73256998
vn 0.18287029 -0.83604970 0.51728073
vn -0.12518270 -0.79138589 0.59836249
vn -0.77756434 -0.55810030 0.28968562
vn -0.60948850 -0.47857261 0.63205381
vn -0.43514652 -0.78476223 0.44135672
vn -0.51627273 -0.82940534 0.21342270
vn -0.60213695 -0.42369645 -0.67669226
vn -0.83422969 -0.51088962 -0.20749126
vn -0.48415005 -0.86930728 -9.9516721e-2
vn -0.17495716 -0.83651198 -0.51926651
vn 0.32224170 -0.62965045 -0.70689504
vn -4.2526984e-2 -0.56790923 -0.82199183
vn 9.5271156e-2 -0.80552190 -0.58485714
vn 0.19337466 -0.84410580 -0.50009163
vn 0.83366089 -0.52823306 -0.16118111
vn 0.59833380 -0.61125081 -0.51804354
vn 0.38659749 -0.86190125 -0.32812896
vn 0.52085334 -0.84777265 -9.9966658e-2
g sphere1_default
usemtl default
s 1
f 1//1 3//3 2//2
f 1//1 17//17 18//18 3//3
f 1//1 38//38 57//57 17//17
f 2//2 37//37 38//38 1//1
f 3//3 6//6 4//4 2//2
f 3//3 18//18 15//15 12//12 9//9 6//6
f 4//4 6//6 5//5
f 4//4 42//42 37//37 2//2
f 5//5 41//41 42//42 4//4
f 6//6 9//9 7//7 5//5
f 7//7 9//9 8//8
f 7//7 46//46 41//41 5//5
f 8//8 45//45 46//46 7//7
f 9//9 12//12 10//10 8//8
f 10//10 12//12 11//11
f 10//10 50//50 45//45 8//8
f 11//11 49//49 50//50 10//10
f 12//12 15//15 13//13 11//11
f 13//13 15//15 14//14
f 13//13 54//54 49//49 11//11
f 14//14 53//53 54//54 13//13
f 15//15 18//18 16//16 14//14
f 16//16 18//18 17//17
f 16//16 58//58 53//53 14//14
f 17//17 57//57 58//58 16//16
f 19//19 21//21 20//20
f 19//19 23//23 24//24 21//21
f 19//19 160//160 163//163 23//23
f 20//20 159//159 160//160 19//19
f 21//21 36//36 34//34 20//20
f 22//22 24//24 23//23
f 22//22 26//26 27//27 24//24
f 22//22 164//164 167//167 26//26
f 23//23 163//163 164//164 22//22
f 24//24 27//27 30//30 33//33 36//36 21//21
f 25//25 27//27 26//26
f 25//25 29//29 30//30 27//27
f 25//25 168//168 171//171 29//29
f 26//26 167//167 168//168 25//25
f 28//28 30//30 29//29
f 28//28 32//32 33//33 30//30
f 28//28 172//172 175//175 32//32
f 29//29 171//171 172//172 28//28
f 31//31 33//33 32//32
f 31//31 35//35 36//36 33//33
f 31//31 176//176 179//179 35//35
f 32//32 175//175 176//176 31//31
f 34//34 36//36 35//35
f 34//34 180//180 159//159 20//20
f 35//35 179//179 180//180 34//34
f 37//37 40//40 39//39 38//38
f 37//37 42//42 43//43 40//40
f 39//39 60//60 57//57 38//38
f 39//39 62//62 81//81 60//60
f 40//40 61//61 62//62 39//39
f 41//41 44//44 43//43 42//42
f 41//41 46//46 47//47 44//44
f 43//43 66//66 61//61 40//40
f 44//44 65//65 66//66 43//43
f 45//45 48//48 47//47 46//46
f 45//45 50//50 51//51 48//48
f 47//47 70//70 65//65 44//44
f 48//48 69//69 70//70 47//47
f 49//49 52//52 51//51 50//50
f 49//49 54//54 55//55 52//52
f 51//51 74//74 69//69 48//48
f 52//52 73//73 74//74 51//51
f 53//53 56//56 55//55 54//54
f 53//53 58//58 59//59 56//56
f 55//55 78//78 73//73 52//52
f 56//56 77//77 78//78 55//55
f 57//57 60//60 59//59 58//58
f 59//59 82//82 77//77 56//56
f 60//60 81//81 82//82 59//59
f 61//61 64//64 63//63 62//62
f 61//61 66//66 67//67 64//64
f 63//63 84//84 81//81 62//62
f 63//63 86//86 105//105 84//84
f 64//64 85//85 86//86 63//63
f 65//65 68//68 67//67 66//66
f 65//65 70//70 71//71 68//68
f 67//67 90//90 85//85 64//64
f 68//68 89//89 90//90 67//67
f 69//69 72//72 71//71 70//70
f 69//69 74//74 75//75 72//72
f 71//71 94//94 89//89 68//68
f 72//72 93//93 94//94 71//71
f 73//73 76//76 75//75 74//74
f 73//73 78//78 79//79 76//76
f 75//75 98//98 93//93 72//72
f 76//76 97//97 98//98 75//75
f 77//77 80//80 79//79 78//78
f 77//77 82//82 83//83 80//80
f 79//79 102//102 97//97 76//76
f 80//80 101//101 102//102 79//79
f 81//81 84//84 83//83 82//82
f 83//83 106//106 101//101 80//80
f 84//84 105//105 106//106 83//83
f 85//85 88//88 87//87 86//86
f 85//85 90//90 91//91 88//88
f 87//87 108//108 105//105 86//86
f 87//87 110//110 129//129 108//108
f 88//88 109//109 110//110 87//87
f 89//89 92//92 91//91 90//90
f 89//89 94//94 95//95 92//92
f 91//91 114//114 109//109 88//88
f 92//92 113//113 114//114 91//91
f 93//93 96//96 95//95 94//94
f 93//93 98//98 99//99 96//96
f 95//95 118//118 113//113 92//92
f 96//96 117//117 118//118 95//95
f 97//97 100//100 99//99 98//98
f 97//97 102//102 103//103 100//100
f 99//99 122//122 117//117 96//96
f 100//100 121//121 122//122 99//99
f 101//101 104//104 103//103 102//102
f 101//101 106//106 107//107 104//104
f 103//103 126//126 121//121 100//100
f 104//104 125//125 126//126 103//103
f 105//105 108//108 107//107 106//106
f 107//107 130//130 125//125 104//104
f 108//108 129//129 130//130 107//107
f 109//109 112//112 111//111 110//110
f 109//109 114//114 115//115 112//112
f 111//111 132//132 129//129 110//110
f 111//111 134//134 153//153 132//132
f 112//112 133//133 134//134 111//111
f 113//113 116//116 115//115 114//114
f 113//113 118//118 119//119 116//116
f 115//115 138//138 133//133 112//112
f 116//116 137//137 138//138 115//115
f 117//117 120//120 119//119 118//118
f 117//117 122//122 123//123 120//120
f 119//119 142//142 137//137 116//116
f 120//120 141//141 142//142 119//119
f 121//121 124//124 123//123 122//122
f 121//121 126//126 127//127 124//124
f 123//123 146//146 141//141 120//120
f 124//124 145//145 146//146 123//123
f 125//125 128//128 127//127 126//126
f 125//125 130//130 131//131 128//128
f 127//127 150//150 145//145 124//124
f 128//128 149//149 150//150 127//127
f 129//129 132//132 131//131 130//130
f 131//131 154//154 149//149 128//128
f 132//132 153//153 154//154 131//131
f 133//133 136//136 135//135 134//134
f 133//133 138//138 139//139 136//136
f 135//135 156//156 153//153 134//134
f 135//135 158//158 177//177 156//156
f 136//136 157//157 158//158 135//135
f 137//137 140//140 139//139 138//138
f 137//137 142//142 143//143 140//140
f 139//139 162//162 157//157 136//136
f 140//140 161//161 162//162 139//139
f 141//141 144//144 143//143 142//142
f 141//141 146//146 147//147 144//144
f 143//143 166//166 161//161 140//140
f 144//144 165//165 166//166 143//143
f 145//145 148//148 147//147 146//146
f 145//145 150//150 151//151 148//148
f 147//147 170//170 165//165 144//144
f 148//148 169//169 170//170 147//147
f 149//149 152//152 151//151 150//150
f 149//149 154//154 155//155 152//152
f 151//151 174//174 169//169 148//148
f 152//152 173//173 174//174 151//151
f 153//153 156//156 155//155 154//154
f 155//155 178//178 173//173 152//152
f 156//156 177//177 178//178 155//155
f 157//157 160//160 159//159 158//158
f 157//157 162//162 163//163 160//160
f 159//159 180//180 177//177 158//158
f 161//161 164//164 163//163 162//162
f 161//161 166//166 167//167 164//164
f 165//165 168//168 167//167 166//166
f 165//165 170//170 171//171 168//168
f 169//169 172//172 171//171 170//170
f 169//169 174//174 175//175 172//172
f 173//173 176//176 175//175 174//174
f 173//173 178//178 179//179 176//176
f 177//177 180//180 179//179 178//178
