# Exported from Wings 3D 1.4.1
mtllib Pentag_coll.mtl
o cylinder3
#32 vertices, 34 faces
v 2.5354406e-2 0.15616393 5.42534459
v -6.68962984 1.68410351 3.53723327
v -6.68962984 1.68410351 -3.53723327
v 2.5354406e-2 0.15616393 -5.42534459
v -0.27094151 -1.76240413 5.15095102
v -6.68962984 -0.26498388 1.87473363
v -6.68962984 -0.26498388 -1.87473363
v -0.27094151 -1.76240413 -5.15095102
v -6.81737853 -1.63848257 5.4225792e-16
v -7.57852529 -1.9264067e-2 -1.59821951
v -7.57852529 -1.9264067e-2 1.59821951
v -8.26450756 1.68410351 5.7538402e-16
v -2.21482182 1.61042946 4.61806233
v -2.21482182 1.61042946 -4.61806233
v -2.37030853 6.8449933e-2 -5.66801623
v -2.37030853 6.8449933e-2 5.66801623
v 2.64774253 1.39463153 2.52233187
v 1.46967709 1.67095022 0.82447885
v 1.20132122 1.68410351 0.42206675
v 1.20132122 1.68410351 -0.42206675
v 1.46967709 1.67095022 -0.82447885
v 2.64774253 1.39463153 -2.52233187
v 2.64774253 -1.00188409 2.11196294
v 2.64774253 -1.00188409 -2.11196294
v 2.67946622 -1.25475474 2.47400000
v 2.67946622 0.74524526 2.47400000
v 7.69476040 0.74524526 2.47400000
v 7.69476040 -1.25475474 2.47400000
v 2.67946622 -1.25475474 -2.47400000
v 2.67946622 0.74524526 -2.47400000
v 7.69476040 0.74524526 -2.47400000
v 7.69476040 -1.25475474 -2.47400000
vn 0.34317651 0.35712784 0.86872872
vn -0.50744576 0.71181151 0.48561628
vn -0.50744576 0.71181151 -0.48561628
vn 0.34317651 0.35712784 -0.86872872
vn 4.3658419e-2 -0.80174003 0.59607623
vn -0.42159690 -0.71410142 0.55885170
vn -0.42159690 -0.71410142 -0.55885170
vn 4.3658419e-2 -0.80174003 -0.59607623
vn -0.51641158 -0.85634052 1.1099362e-16
vn -0.71163591 -0.43597256 -0.55091039
vn -0.71163591 -0.43597256 0.55091039
vn -0.97478161 0.22316095 1.4920248e-16
vn -6.2230818e-2 0.74891594 0.65973650
vn -6.2230818e-2 0.74891594 -0.65973650
vn -0.22021568 -0.11583881 -0.96854862
vn -0.22021568 -0.11583881 0.96854862
vn 0.48380137 0.73085380 0.48144467
vn 0.14316224 0.98090385 0.13165183
vn 7.5417827e-2 0.99711437 8.6651623e-3
vn 7.5417827e-2 0.99711437 -8.6651623e-3
vn 0.14316224 0.98090385 -0.13165183
vn 0.48380137 0.73085380 -0.48144467
vn -0.54811321 -0.70541439 0.44940232
vn -0.54811321 -0.70541439 -0.44940232
vn -0.77313422 -0.44489592 0.45202997
vn 7.3381169e-3 0.66623752 0.74570351
vn 0.57735027 0.57735027 0.57735027
vn 0.57735027 -0.57735027 0.57735027
vn -0.77313422 -0.44489592 -0.45202997
vn 7.3381169e-3 0.66623752 -0.74570351
vn 0.57735027 0.57735027 -0.57735027
vn 0.57735027 -0.57735027 -0.57735027
g cylinder3_default
usemtl default
s 1
f 1//1 16//16 5//5
f 1//1 17//17 18//18 13//13
f 2//2 19//19 20//20 3//3 12//12
f 3//3 20//20 21//21 14//14
f 4//4 15//15 14//14
f 4//4 22//22 24//24 8//8
f 5//5 9//9 8//8
f 5//5 16//16 11//11 6//6
f 5//5 23//23 17//17 1//1
f 6//6 9//9 5//5
f 6//6 11//11 9//9
f 7//7 10//10 15//15 8//8
f 8//8 9//9 7//7
f 8//8 15//15 4//4
f 8//8 24//24 23//23 5//5
f 9//9 10//10 7//7
f 10//10 12//12 3//3
f 11//11 16//16 13//13 2//2
f 12//12 10//10 9//9 11//11
f 12//12 11//11 2//2
f 13//13 16//16 1//1
f 13//13 18//18 19//19 2//2
f 14//14 15//15 10//10 3//3
f 14//14 21//21 22//22 4//4
f 17//17 26//26 30//30 22//22
f 19//19 18//18 17//17 22//22 21//21 20//20
f 22//22 30//30 29//29 24//24
f 23//23 25//25 26//26 17//17
f 24//24 29//29 25//25 23//23
f 25//25 28//28 27//27 26//26
f 25//25 29//29 32//32 28//28
f 27//27 31//31 30//30 26//26
f 28//28 32//32 31//31 27//27
f 30//30 31//31 32//32 29//29
