# Exported from Wings 3D 1.4.1
mtllib sJet.mtl
o sphere3
#158 vertices, 149 faces
v -1.4292234e-4 0.17129486 0.34240335
v 5.4180119e-2 0.16770828 0.34243066
v 8.2328969e-2 0.15745271 0.34244877
v 0.10000900 0.14209024 0.34246435
v -8.4997352e-5 0.21154870 0.21955617
v 8.2386896e-2 0.20492307 0.21959818
v 0.13439919 0.18596928 0.21963164
v 0.16915269 0.15757737 0.21966142
v 3.4991503e-5 0.26693644 -3.4915924e-2
v 0.10654186 0.25456547 -3.4859871e-2
v 0.20362377 0.21917699 -3.4797408e-2
v 0.26352979 0.16526843 -3.4743742e-2
v 1.7414271e-4 0.28162907 -0.33002748
v 0.11611624 0.26773435 -0.32996626
v 0.22119693 0.22819786 -0.32989807
v 0.29140959 0.16953033 -0.32983730
v 0.25685128 0.12792347 -3.1442919e-2
v 3.3436500e-5 0.24257845 -3.1618076e-2
v 0.10091896 0.23085949 -3.1564981e-2
v 0.19134699 0.19803516 -3.1506865e-2
v 0.24801297 0.15214174 -3.1458506e-2
v 0.28248655 0.12334946 -0.32965878
v 1.7406168e-4 0.25850868 -0.32985563
v 0.11042837 0.24519349 -0.32979736
v 0.20873256 0.20800187 -0.32973347
v 0.27055742 0.15593812 -0.32967977
v 0.13626802 0.14984501 0.29266608
v 0.22637869 0.15861434 9.6812984e-2
v 0.27765924 0.16822880 -0.17744515
v 1.8281397e-4 0.12322903 -0.34841747
v 0.13733453 0.12331011 -0.34835266
v 4.8152830e-5 0.12779997 -6.2828435e-2
v 4.9087652e-2 0.11660308 0.38128209
v 3.5653038e-2 0.12757529 0.38127058
v 1.5546717e-2 0.13489976 0.38125765
v -1.6123888e-4 0.13746126 0.38124903
v 0.15395414 9.8701386e-2 0.29269853
v 0.19352583 9.8745580e-2 0.21970065
v 0.20700388 5.2434208e-2 0.21972884
v 0.15916965 5.2359341e-2 0.29272284
v 4.3889810e-2 9.8571546e-2 0.38128814
v 0.11273590 9.8622599e-2 0.34249084
v 0.10738699 5.2289076e-2 0.34251017
v 3.5153754e-2 5.2236436e-2 0.38130587
v 0.15800760 9.8698322e-2 -0.39542526
v 0.16648221 5.2339740e-2 -0.39539941
v 0.30315446 9.8836378e-2 -0.17740041
v 0.31453829 9.8773830e-2 -0.32979303
v 0.32223743 5.2425123e-2 -0.32976755
v 0.30983786 5.2496981e-2 -0.17737541
v 0.24486660 9.8812573e-2 9.6849899e-2
v 0.28099011 9.8846475e-2 -3.4704190e-2
v 0.28605354 5.2507452e-2 -3.4679953e-2
v 0.25088516 5.2481778e-2 9.6874583e-2
v 0.18362052 1.9719546e-2 0.29274976
v 0.23646678 1.9798243e-2 0.21975812
v 0.26744154 -4.5890685e-3 0.21739197
v 0.21149278 -4.6723361e-3 0.29277441
v 4.0854725e-2 1.9582802e-2 0.38132396
v 0.12707914 1.9643455e-2 0.34253485
v 0.16646345 -4.7579964e-3 0.34256492
v 5.2256675e-2 -4.8331790e-3 0.38134085
v 0.16482182 1.9690237e-2 -0.39538480
v 0.16150104 -4.7168466e-3 -0.39537485
v 0.32284792 1.9842508e-2 -0.17735388
v 0.32436026 1.9768041e-2 -0.32975115
v 0.32860594 -4.6394838e-3 -0.32973764
v 0.34107786 -4.5614032e-3 -0.17649580
v 0.27926051 1.9844756e-2 9.6903352e-2
v 0.30781444 1.9866243e-2 -3.4654301e-2
v 0.33627310 -4.5285426e-3 -3.3847527e-2
v 0.31426589 -4.5438437e-3 9.6764861e-2
v 2.0512716e-4 -4.8025475e-3 -0.39573924
v 2.0513259e-4 1.9603251e-2 -0.39575075
v -1.6673805e-4 -4.8561321e-3 0.39291166
v -1.6673262e-4 1.9566040e-2 0.39290014
v 2.0513985e-4 5.2252099e-2 -0.39576615
v 2.0515016e-4 9.8611573e-2 -0.39578801
v -1.6672536e-4 5.2222892e-2 0.39288475
v -1.6671507e-4 9.8529556e-2 0.39286291
v 0.21240806 0.22368971 -0.17750207
v 0.11132676 0.26115220 -0.17756740
v 1.0228227e-4 0.27428504 -0.17762603
v 0.16900943 0.20257518 9.6765205e-2
v 9.4462325e-2 0.22974632 9.6717242e-2
v -2.7053138e-5 0.23924462 9.6668210e-2
v 0.10835861 0.17171647 0.29264261
v 6.8278037e-2 0.18632115 0.29261682
v -1.1943062e-4 0.19142725 0.29258216
v -5.4465965e-2 0.16770828 0.34237943
v -8.2614820e-2 0.15745271 0.34237099
v -0.10029485 0.14209024 0.34236990
v -8.2556894e-2 0.20492307 0.21952040
v -0.13456920 0.18596928 0.21950482
v -0.16932271 0.15757737 0.21950182
v -0.10647188 0.25456547 -3.4960311e-2
v -0.20355380 0.21917699 -3.4989401e-2
v -0.26345985 0.16526843 -3.4992229e-2
v -0.11576796 0.26773435 -0.33007560
v -0.22084867 0.22819786 -0.33010651
v -0.29106136 0.16953033 -0.33011195
v -0.25678446 0.12792347 -3.1685109e-2
v -0.10085210 0.23085949 -3.1660120e-2
v -0.19128013 0.19803516 -3.1687281e-2
v -0.24794613 0.15214174 -3.1692361e-2
v -0.28213849 0.12334946 -0.32992501
v -0.11008026 0.24519349 -0.32990134
v -0.20838446 0.20800187 -0.32993015
v -0.27020935 0.15593812 -0.32993476
v -0.13650690 0.14984501 0.29253746
v -0.22643283 0.15861434 9.6599474e-2
v -0.27745472 0.16822880 -0.17770690
v -0.13696891 0.12331011 -0.34848200
v -4.9410139e-2 0.11660308 0.38123565
v -3.5975521e-2 0.12757529 0.38123681
v -1.5869195e-2 0.13489976 0.38124284
v -0.15419305 9.8701386e-2 0.29255324
v -0.19369587 9.8745580e-2 0.21951807
v -0.20717394 5.2434208e-2 0.21953355
v -0.15940858 5.2359341e-2 0.29257263
v -4.4212305e-2 9.8571546e-2 0.38124660
v -0.11302177 9.8622599e-2 0.34238439
v -0.10767289 5.2289076e-2 0.34240876
v -3.5476270e-2 5.2236436e-2 0.38127257
v -0.15759758 9.8698322e-2 -0.39557408
v -0.16607220 5.2339740e-2 -0.39555622
v -0.30294997 9.8836378e-2 -0.17768620
v -0.31419008 9.8773830e-2 -0.33008949
v -0.32188924 5.2425123e-2 -0.33007127
v -0.30963339 5.2496981e-2 -0.17766750
v -0.24492076 9.8812573e-2 9.6618954e-2
v -0.28092021 9.8846475e-2 -3.4969142e-2
v -0.28598366 5.2507452e-2 -3.4949680e-2
v -0.25093935 5.2481778e-2 9.6637962e-2
v -0.18385946 1.9719546e-2 0.29257649
v -0.23663686 1.9798243e-2 0.21953504
v -0.26760938 -4.5890685e-3 0.21713968
v -0.21173173 -4.6723361e-3 0.29257485
v -4.1177255e-2 1.9582802e-2 0.38128528
v -0.12736506 1.9643455e-2 0.34241487
v -0.16674938 -4.7579964e-3 0.34240781
v -5.2579216e-2 -4.8331790e-3 0.38129141
v -0.16441182 1.9690237e-2 -0.39554004
v -0.16109106 -4.7168466e-3 -0.39552696
v -0.32264347 1.9842508e-2 -0.17765824
v -0.32401209 1.9768041e-2 -0.33005687
v -0.32825778 -4.6394838e-3 -0.33004736
v -0.34087421 -4.5614032e-3 -0.17681735
v -0.27931471 1.9844756e-2 9.6639972e-2
v -0.30774457 1.9866243e-2 -3.4944550e-2
v -0.33620397 -4.5285426e-3 -3.4164614e-2
v -0.31431994 -4.5438437e-3 9.6468470e-2
v -0.21220352 0.22368971 -0.17770228
v -0.11112220 0.26115220 -0.17767229
v -0.16906355 0.20257518 9.6605796e-2
v -9.4516436e-2 0.22974632 9.6628135e-2
v -0.10859748 0.17171647 0.29254031
v -6.8516900e-2 0.18632115 0.29255232
vn -2.4908752e-4 0.84907999 0.52826424
vn 0.17156162 0.80785053 0.56386535
vn 0.37996152 0.67314926 0.63442834
vn 0.58237782 0.37650760 0.72047075
vn -1.1230322e-4 0.97122288 0.23817242
vn 0.20797719 0.94606466 0.24840923
vn 0.46642741 0.83669341 0.28703591
vn 0.74754603 0.54942885 0.37323299
vn -5.9377250e-5 0.99203949 0.12592714
vn 0.22767100 0.96529524 0.12794926
vn 0.49895661 0.85458098 0.14399186
vn 0.82304108 0.53808326 0.18185098
vn 3.2792484e-4 0.71856256 -0.69546225
vn 0.16983689 0.69866294 -0.69500038
vn 0.36310546 0.62063853 -0.69495485
vn 0.59079536 0.40580557 -0.69733972
vn -0.53162635 0.52254381 -0.66657437
vn 3.7093915e-4 -0.61735208 -0.78668690
vn -0.18312443 -0.83481768 -0.51917713
vn -0.43312770 -0.73216699 -0.52567280
vn -0.71626433 -0.44687865 -0.53597097
vn -0.32771747 0.60652940 -0.72437791
vn 3.4192027e-4 -0.68859746 -0.72514372
vn -0.16094456 -0.66912481 -0.72551281
vn -0.34128457 -0.59284055 -0.72942780
vn -0.54864949 -0.38835917 -0.74037888
vn 0.70823600 0.51063220 0.48750028
vn 0.78420537 0.54174652 0.30254362
vn 0.82698311 0.55539106 8.7405357e-2
vn 1.1569833e-4 0.96942880 -0.24537275
vn 5.9810611e-2 0.92352910 -0.37883596
vn 3.0377353e-4 0.76482147 -0.64424221
vn 0.34246115 0.16511631 0.92490917
vn 0.22085671 0.39286402 0.89268145
vn 0.11180351 0.49446745 0.86197559
vn -3.9864120e-4 0.53407447 0.84543735
vn 0.80377485 0.18629371 0.56501384
vn 0.87118540 0.25095585 0.42196820
vn 0.81740784 0.40488494 0.40977142
vn 0.74176372 0.29676410 0.60142967
vn 0.39080757 -2.6724101e-2 0.92008438
vn 0.63814377 6.0147919e-2 0.76756417
vn 0.58252761 0.13198120 0.80202403
vn 0.37430561 2.4263359e-2 0.92698792
vn 0.15995334 0.49266085 -0.85539477
vn 0.19775549 1.7442979e-2 -0.98009617
vn 0.96771894 0.22688280 0.10974633
vn 0.67400577 0.35771347 -0.64634148
vn 0.83774234 0.13740348 -0.52849603
vn 0.96427091 0.24507091 0.10060746
vn 0.92173757 0.22249173 0.31764333
vn 0.95825064 0.20176838 0.20259624
vn 0.92353851 0.33514523 0.18642501
vn 0.87425324 0.40065054 0.27415402
vn 0.60380532 0.59738803 0.52777522
vn 0.65105267 0.67521777 0.34671512
vn 0.82660818 0.32987280 0.45596364
vn 0.73037273 0.25523284 0.63357073
vn 0.32911280 0.15267050 0.93186720
vn 0.48959486 0.42288874 0.76253655
vn 0.51808216 2.8547396e-2 0.85485433
vn 0.28608632 -0.29288070 0.91234616
vn 0.19402773 1.9855919e-3 -0.98099404
vn 0.17041690 -0.45155790 -0.87581593
vn 0.88706996 0.45933031 4.6071214e-2
vn 0.80397149 0.19865852 -0.56050392
vn 0.75281950 -0.33842341 -0.56456390
vn 0.99771801 6.6691173e-2 1.0538674e-2
vn 0.67860558 0.70793270 0.19576965
vn 0.75503210 0.64457417 0.12021093
vn 0.93387156 0.33777405 0.11744188
vn 0.87476750 0.41837387 0.24442814
vn 4.2164085e-4 -0.44763761 -0.89421496
vn 4.7152056e-4 -5.5387842e-4 -0.99999974
vn -4.2876468e-4 -0.41609040 0.90932315
vn -4.7108926e-4 4.2765229e-2 0.99908504
vn 4.7152059e-4 -4.1235322e-4 -0.99999980
vn 4.0320877e-4 0.51842298 -0.85512423
vn -4.7152063e-4 -8.9573252e-5 0.99999988
vn -4.6734029e-4 0.13286361 0.99113422
vn 0.50623781 0.86029257 6.0166118e-2
vn 0.23366909 0.97101084 5.0365752e-2
vn -2.3145115e-5 0.99879455 4.9086106e-2
vn 0.47769047 0.84604025 0.23670174
vn 0.21754160 0.95318066 0.21005305
vn -9.7488517e-5 0.97839308 0.20675343
vn 0.45076170 0.80243753 0.39103439
vn 0.19693664 0.92078198 0.33671429
vn -1.4960193e-4 0.94833342 0.31727543
vn -0.17209329 0.80785053 0.56370331
vn -0.38055964 0.67314926 0.63406974
vn -0.58305699 0.37650760 0.71992122
vn -0.20821136 0.94606466 0.24821299
vn -0.46669789 0.83669341 0.28659592
vn -0.74789768 0.54942885 0.37252786
vn -0.22779156 0.96529524 0.12773450
vn -0.49909218 0.85458098 0.14352126
vn -0.82321221 0.53808326 0.18107474
vn -0.16918140 0.69866294 -0.69516024
vn -0.36244993 0.62063853 -0.69529696
vn -0.59013748 0.40580557 -0.69789655
vn 0.53225472 0.52254381 -0.66607273
vn 0.18361395 -0.83481768 -0.51900420
vn 0.43362324 -0.73216699 -0.52526411
vn 0.71676945 -0.44687865 -0.53529527
vn 0.32840044 0.60652940 -0.72406853
vn 0.16162868 -0.66912481 -0.72536071
vn 0.34197230 -0.59284055 -0.72910563
vn 0.54934745 -0.38835917 -0.73986116
vn -0.70869542 0.51063220 0.48683217
vn -0.78449033 0.54174652 0.30180395
vn -0.82706517 0.55539106 8.6625439e-2
vn -5.9453327e-2 0.92352910 -0.37889220
vn -0.34333322 0.16511631 0.92458580
vn -0.22169845 0.39286402 0.89247278
vn -0.11261633 0.49446745 0.86186977
vn -0.80430732 0.18629371 0.56425560
vn -0.87158295 0.25095585 0.42114645
vn -0.81779390 0.40488494 0.40900039
vn -0.74233057 0.29676410 0.60072989
vn -0.39167508 -2.6724101e-2 0.91971542
vn -0.63886733 6.0147919e-2 0.76696204
vn -0.58328369 0.13198120 0.80147433
vn -0.37517963 2.4263359e-2 0.92663452
vn -0.15914659 0.49266085 -0.85554523
vn -0.19683113 1.7442979e-2 -0.98028223
vn -0.96782200 0.22688280 0.10883369
vn -0.67339594 0.35771347 -0.64697680
vn -0.83724357 0.13740348 -0.52928582
vn -0.96436536 0.24507091 9.9698068e-2
vn -0.92203671 0.22249173 0.31677395
vn -0.95844127 0.20176838 0.20169248
vn -0.92371391 0.33514523 0.18555399
vn -0.87451138 0.40065054 0.27332944
vn -0.60430276 0.59738803 0.52720557
vn -0.65137935 0.67521777 0.34610100
vn -0.82703781 0.32987280 0.45518392
vn -0.73096989 0.25523284 0.63288168
vn -0.32999144 0.15267050 0.93155642
vn -0.49031375 0.42288874 0.76207450
vn -0.51888809 2.8547396e-2 0.85436538
vn -0.28694657 -0.29288070 0.91207596
vn -0.19310252 1.9855919e-3 -0.98117658
vn -0.16959090 -0.45155790 -0.87597625
vn -0.88711301 0.45933031 4.5234650e-2
vn -0.80344255 0.19865852 -0.56126185
vn -0.75228675 -0.33842341 -0.56527359
vn -0.99772750 6.6691173e-2 9.5977798e-3
vn -0.67878990 0.70793270 0.19512961
vn -0.75514513 0.64457417 0.11949885
vn -0.93398190 0.33777405 0.11656114
vn -0.87499762 0.41837387 0.24360309
vn -0.50629433 0.86029257 5.9688688e-2
vn -0.23371648 0.97101084 5.0145370e-2
vn -0.47791348 0.84604025 0.23625115
vn -0.21773959 0.95318066 0.20984780
vn -0.45113026 0.80243753 0.39060913
vn -0.19725409 0.92078198 0.33652842
g sphere3_default
usemtl default
s 1
f 1//1 36//36 35//35 2//2
f 1//1 90//90 116//116 36//36
f 2//2 35//35 34//34 3//3
f 2//2 88//88 89//89 1//1
f 3//3 34//34 33//33 4//4
f 3//3 87//87 88//88 2//2
f 4//4 27//27 87//87 3//3
f 4//4 33//33 41//41 42//42
f 5//5 89//89 88//88 6//6
f 5//5 93//93 158//158 89//89
f 6//6 85//85 86//86 5//5
f 6//6 88//88 87//87 7//7
f 7//7 84//84 85//85 6//6
f 7//7 87//87 27//27 8//8
f 8//8 27//27 37//37 38//38
f 8//8 28//28 84//84 7//7
f 9//9 86//86 85//85 10//10
f 9//9 96//96 156//156 86//86
f 10//10 82//82 83//83 9//9
f 10//10 85//85 84//84 11//11
f 11//11 81//81 82//82 10//10
f 11//11 84//84 28//28 12//12
f 12//12 28//28 51//51 52//52
f 12//12 29//29 81//81 11//11
f 13//13 83//83 82//82 14//14
f 13//13 99//99 154//154 83//83
f 14//14 24//24 23//23 13//13
f 14//14 82//82 81//81 15//15
f 15//15 25//25 24//24 14//14
f 15//15 81//81 29//29 16//16
f 16//16 26//26 25//25 15//15
f 16//16 29//29 47//47 48//48
f 17//17 32//32 18//18 19//19 20//20 21//21
f 18//18 23//23 24//24 19//19
f 18//18 103//103 107//107 23//23
f 19//19 24//24 25//25 20//20
f 20//20 25//25 26//26 21//21
f 21//21 26//26 22//22 17//17
f 22//22 31//31 30//30 32//32 17//17
f 23//23 107//107 99//99 13//13
f 30//30 113//113 106//106 102//102 32//32
f 31//31 45//45 78//78 30//30
f 32//32 102//102 105//105 104//104 103//103 18//18
f 33//33 34//34 80//80
f 34//34 35//35 80//80
f 35//35 36//36 80//80
f 36//36 116//116 80//80
f 37//37 40//40 39//39 38//38
f 37//37 42//42 43//43 40//40
f 38//38 51//51 28//28 8//8
f 39//39 54//54 51//51 38//38
f 39//39 56//56 69//69 54//54
f 40//40 55//55 56//56 39//39
f 41//41 44//44 43//43 42//42
f 41//41 80//80 79//79 44//44
f 42//42 37//37 27//27 4//4
f 43//43 60//60 55//55 40//40
f 44//44 59//59 60//60 43//43
f 45//45 46//46 77//77 78//78
f 45//45 48//48 49//49 46//46
f 47//47 50//50 49//49 48//48
f 47//47 52//52 53//53 50//50
f 48//48 22//22 26//26 16//16
f 48//48 45//45 31//31 22//22
f 49//49 66//66 63//63 46//46
f 50//50 65//65 66//66 49//49
f 51//51 54//54 53//53 52//52
f 52//52 47//47 29//29 12//12
f 53//53 70//70 65//65 50//50
f 54//54 69//69 70//70 53//53
f 55//55 58//58 57//57 56//56
f 55//55 60//60 61//61 58//58
f 57//57 72//72 69//69 56//56
f 58//58 61//61 62//62 75//75 142//142 141//141 138//138 137//137 152//152 151//151 148//148 147//147 144//144 73//73 64//64 67//67 68//68 71//71 72//72 57//57
f 59//59 62//62 61//61 60//60
f 59//59 76//76 75//75 62//62
f 63//63 64//64 73//73 74//74
f 63//63 66//66 67//67 64//64
f 63//63 74//74 77//77 46//46
f 65//65 68//68 67//67 66//66
f 65//65 70//70 71//71 68//68
f 69//69 72//72 71//71 70//70
f 73//73 144//144 143//143 74//74
f 74//74 143//143 126//126 77//77
f 76//76 139//139 142//142 75//75
f 77//77 126//126 125//125 78//78
f 78//78 125//125 113//113 30//30
f 79//79 76//76 59//59 44//44
f 79//79 124//124 139//139 76//76
f 80//80 41//41 33//33
f 80//80 115//115 114//114
f 80//80 116//116 115//115
f 80//80 121//121 124//124 79//79
f 83//83 154//154 96//96 9//9
f 86//86 156//156 93//93 5//5
f 89//89 158//158 90//90 1//1
f 90//90 158//158 157//157 91//91
f 91//91 115//115 116//116 90//90
f 91//91 157//157 110//110 92//92
f 92//92 110//110 117//117 122//122
f 92//92 114//114 115//115 91//91
f 93//93 156//156 155//155 94//94
f 94//94 155//155 111//111 95//95
f 94//94 157//157 158//158 93//93
f 95//95 110//110 157//157 94//94
f 95//95 111//111 131//131 118//118
f 96//96 154//154 153//153 97//97
f 97//97 153//153 112//112 98//98
f 97//97 155//155 156//156 96//96
f 98//98 111//111 155//155 97//97
f 98//98 112//112 127//127 132//132
f 99//99 107//107 108//108 100//100
f 100//100 108//108 109//109 101//101
f 100//100 153//153 154//154 99//99
f 101//101 109//109 106//106 128//128
f 101//101 112//112 153//153 100//100
f 102//102 106//106 109//109 105//105
f 104//104 108//108 107//107 103//103
f 105//105 109//109 108//108 104//104
f 106//106 113//113 125//125 128//128
f 114//114 121//121 80//80
f 118//118 117//117 110//110 95//95
f 118//118 119//119 120//120 117//117
f 118//118 131//131 134//134 119//119
f 119//119 136//136 135//135 120//120
f 120//120 123//123 122//122 117//117
f 120//120 135//135 140//140 123//123
f 122//122 121//121 114//114 92//92
f 122//122 123//123 124//124 121//121
f 123//123 140//140 139//139 124//124
f 126//126 129//129 128//128 125//125
f 126//126 143//143 146//146 129//129
f 128//128 127//127 112//112 101//101
f 128//128 129//129 130//130 127//127
f 129//129 146//146 145//145 130//130
f 130//130 133//133 132//132 127//127
f 130//130 145//145 150//150 133//133
f 132//132 131//131 111//111 98//98
f 132//132 133//133 134//134 131//131
f 133//133 150//150 149//149 134//134
f 134//134 149//149 136//136 119//119
f 136//136 137//137 138//138 135//135
f 136//136 149//149 152//152 137//137
f 138//138 141//141 140//140 135//135
f 140//140 141//141 142//142 139//139
f 144//144 147//147 146//146 143//143
f 146//146 147//147 148//148 145//145
f 148//148 151//151 150//150 145//145
f 150//150 151//151 152//152 149//149
