# Exported from Wings 3D 1.4.1
mtllib lAsteroid3_coll.mtl
o sphere2
#102 vertices, 111 faces
v 2.76112509 9.00623888 1.54508050
v 1.41550907 9.80221744 2.50070547
v -4.6073429e-2 10.14228548 4.22084471
v -1.47521556 10.60185809 5.54326400
v -3.26320716 9.84268796 4.82627544
v -5.05437912 9.81769565 3.20454528
v -5.84122347 9.98686766 0.99373481
v -5.06029609 9.64991796 -1.36652208
v -3.35007973 9.31140986 -2.91191924
v -0.94413248 8.78786986 -2.82830161
v 1.29462380 8.36872540 -1.31897237
v 2.62677414 8.48645185 0.23736702
v 5.83724312 10.68609047 4.88070838
v 2.79963582 10.90664657 8.65819471
v -1.85407255 7.92101407 12.57253547
v -5.30818198 7.26463720 8.82652763
v -8.61933582 7.01342709 5.02403301
v -10.39026745 8.16520908 0.51049949
v -9.04921078 8.48455938 -3.98576897
v -5.30851229 8.00713726 -7.23032968
v -1.22525423 7.44380449 -8.30298395
v 3.53257148 6.62038491 -4.54799992
v 6.70675259 8.51632377 -2.11388116
v 17.15191878 7.44499126 4.61958314
v 14.41964570 7.17777489 10.12027968
v 8.20192335 6.12042881 15.52299849
v -1.01638054 3.75656408 16.13933957
v -8.01948767 3.06652140 13.56860497
v -12.54981486 3.23385767 7.15933706
v -15.58823452 3.89009026 0.38558388
v -13.80873804 3.96897308 -6.98146109
v -4.92539672 2.23776771 -15.98671795
v 0.31161533 1.09292364 -17.29994525
v 4.93879739 4.00909889 -11.26456396
v 10.48877571 6.54056119 -6.02132273
v 17.76998817 -6.6309857e-2 2.72656623
v 16.69760792 0.20031728 8.34858512
v 8.72253020 -4.9043902e-2 13.87448007
v -0.35853892 -1.24107535 15.64574133
v -7.45518213 -1.78564426 12.77547301
v -15.16693465 3.9322930e-2 8.48271482
v -17.65830367 -0.17827132 1.07193358
v -13.52697664 -0.10359769 -7.46359359
v -4.99039694 0.50561160 -15.63472054
v 0.42248532 -0.54851212 -16.97358767
v 5.40154653 -0.18700509 -11.00854164
v 11.85079747 0.43202879 -5.87569320
v 13.55814537 -4.16173286 1.42268849
v 12.93595783 -4.86122066 6.63662141
v 8.00986670 -5.30351162 11.31392583
v 7.9418845e-2 -5.43333308 12.08447356
v -6.25280991 -5.45632138 11.00987407
v -11.85035850 -5.04571700 6.90345247
v -13.85074790 -5.36258130 1.10869495
v -10.81128287 -6.05395914 -6.38055880
v -6.57654939 -4.47280081 -12.07323632
v -0.40149356 -2.36904112 -14.56519622
v 5.74114419 -3.13440031 -10.20821674
v 9.93346455 -3.54875258 -5.54610277
v 11.19893039 -9.04591785 0.47087533
v 10.20286818 -10.02384616 5.67663841
v 6.27673023 -9.96127708 8.85753978
v 0.82435152 -8.23992465 8.95601289
v -3.88284010 -8.13199753 7.69778001
v -8.34739423 -7.87758773 4.23692062
v -10.06830065 -7.19462145 1.01772769
v -8.79863090 -7.00471471 -5.31142455
v -5.70836423 -6.94371309 -9.37230441
v -0.17525645 -6.46308106 -10.43874277
v 5.30691962 -6.94479161 -8.36729695
v 9.36799079 -7.75633708 -4.12006138
v 7.22874922 -11.29398056 1.12579837
v 6.49822468 -11.63822171 4.08833553
v 4.32942222 -11.53608693 5.92116292
v 1.27491065 -10.19567943 5.44337504
v -1.40134754 -10.15205201 4.55042447
v -4.17880328 -11.18397573 2.55892729
v -4.58061928 -10.99964656 1.38673676
v -3.71525244 -10.51214050 -1.89496057
v -2.18849356 -10.61882163 -4.20079496
v 0.99483657 -10.01964755 -4.74967776
v 3.87595532 -9.70467737 -3.47402002
v 6.18289164 -10.12342081 -1.39431922
v -1.67611597 9.45095106 0.84133795
v 1.56340616 -10.90052029 1.10023675
v 12.80131366 3.52466882 -5.12701233
v 10.32113241 3.03569245 14.92479871
v 16.84263382 3.68904608 9.56457763
v 18.66166618 3.68934070 3.88472042
v 7.09471713 9.09819123 -0.71130241
v 4.37182207 8.12910725 -6.75838634
v -1.50237359 8.27837323 -9.09388087
v -5.23533722 6.98065615 -8.90279984
v 3.86713448 9.17122266 1.34515289
v 11.53845755 8.76159582 2.33714866
v 2.43592149 9.76526374 3.04012382
v 9.39958058 8.61003547 7.03380804
v 0.57933872 10.08070847 5.24083690
v 4.96660537 8.29987625 11.49273723
v 6.71107940 10.38857891 0.87720685
v 8.35319145 10.35807806 1.05465008
v 7.20309673 10.73953287 1.60286875
vn 3.4171236e-2 0.90779980 -0.41800940
vn 7.5488667e-2 0.94925943 -0.30529984
vn 0.12338158 0.99102120 -5.1516612e-2
vn -0.11376388 0.99276749 3.8347010e-2
vn -0.30454685 0.94771382 9.5340066e-2
vn -0.17710439 0.96948487 0.16950845
vn -0.12419985 0.99133008 4.2884344e-2
vn -3.7679600e-2 0.98948758 -0.13962299
vn 9.0345726e-2 0.97677541 -0.19428704
vn 0.23572109 0.95173676 -0.19655207
vn 0.18003206 0.95227055 -0.24651420
vn 1.4177787e-2 0.94218562 -0.33479136
vn 9.9984578e-2 0.99445019 3.2739965e-2
vn 1.2799051e-2 0.97799455 0.20823748
vn -0.19466992 0.85814488 0.47506945
vn -0.46768938 0.78323247 0.40965052
vn -0.48602087 0.79625822 0.36021739
vn -0.50117998 0.85722331 0.11826594
vn -0.36366120 0.89258566 -0.26653587
vn -0.11875793 0.94786386 -0.29572056
vn 2.8719355e-2 0.99955035 -8.6192512e-3
vn -0.18224847 0.98143643 5.9732909e-2
vn -7.8989297e-2 0.95995611 -0.26878421
vn 0.60593680 0.79027185 -9.1164740e-2
vn 0.50993071 0.74051328 0.43773366
vn 0.24802826 0.53836967 0.80538195
vn -0.20875024 0.31975311 0.92421929
vn -0.53428951 0.41396717 0.73699789
vn -0.64545710 0.59793456 0.47524668
vn -0.78415930 0.61831164 5.2772196e-2
vn -0.73620247 0.47713506 -0.47994589
vn -0.42975810 0.38788923 -0.81538330
vn 0.21262061 0.42169981 -0.88145433
vn 0.54723941 0.46907566 -0.69317895
vn 0.53574508 0.62553883 -0.56716698
vn 0.89549560 -0.40065418 -0.19381399
vn 0.74755916 -0.48031440 0.45875197
vn 0.36777398 -0.42410446 0.82757338
vn -6.6129279e-2 -0.38303472 0.92136384
vn -0.45388221 -0.28399072 0.84459470
vn -0.79221569 -9.4087869e-2 0.60294426
vn -0.99522060 -9.4456423e-2 -2.4777834e-2
vn -0.81886994 -0.17757613 -0.54581933
vn -0.48662157 -0.30707815 -0.81786457
vn 0.26323835 -0.37981001 -0.88682012
vn 0.68011134 -0.17079182 -0.71293669
vn 0.73222108 -0.19226593 -0.65336521
vn 0.83904559 -0.50444542 -0.20380707
vn 0.73045620 -0.56457891 0.38429727
vn 0.33414596 -0.55614706 0.76095133
vn -4.9621693e-2 -0.63692306 0.76932874
vn -0.31459415 -0.70162193 0.63934121
vn -0.55611681 -0.72792754 0.40106805
vn -0.65631863 -0.75447269 4.0998460e-3
vn -0.60505002 -0.68354971 -0.40825759
vn -0.34349362 -0.65538484 -0.67266846
vn 0.18042672 -0.63286823 -0.75294356
vn 0.57148131 -0.42708970 -0.70071642
vn 0.73157133 -0.35581406 -0.58154944
vn 0.69241948 -0.68186835 -0.23581946
vn 0.59721114 -0.75494722 0.27091243
vn 0.13917007 -0.76722351 0.62609886
vn -0.15679937 -0.78047584 0.60520362
vn -0.23659448 -0.83476528 0.49718204
vn -0.43818629 -0.84536529 0.30553282
vn -0.50616556 -0.86242837 3.7052170e-3
vn -0.44158530 -0.86079413 -0.25305313
vn -0.22262428 -0.83150694 -0.50895446
vn 0.12400097 -0.76114572 -0.63661680
vn 0.38147600 -0.69214365 -0.61270975
vn 0.56582433 -0.63299560 -0.52835536
vn 0.17320385 -0.94913144 -0.26296376
vn 0.13824135 -0.99016737 2.1398826e-2
vn -0.15518038 -0.95901676 0.23707785
vn -0.24272087 -0.91610980 0.31910722
vn -9.7942109e-2 -0.92594496 0.36473727
vn -0.19775774 -0.95769906 0.20905597
vn -0.28392528 -0.95423015 -9.3974739e-2
vn -0.25855992 -0.95267321 -0.15987659
vn -8.7937172e-2 -0.95988939 -0.26623189
vn 0.13236896 -0.92627318 -0.35284056
vn 0.16618876 -0.92687543 -0.33657576
vn 0.14519406 -0.91390907 -0.37906318
vn 9.9559873e-2 0.97677156 -0.18975022
vn -2.3758211e-2 -0.99686247 -7.5503444e-2
vn 0.75884830 0.14808459 -0.63420834
vn 0.46534668 -0.10704844 0.87863138
vn 0.81845608 1.7287604e-2 0.57430897
vn 0.97921218 0.15298495 -0.13318825
vn 6.4914442e-2 0.82172158 -0.56617997
vn -0.10357681 0.99140662 -7.9904697e-2
vn -5.5165075e-2 0.97484281 -0.21595904
vn -0.21029792 0.88111892 -0.42356137
vn -0.21900907 0.87690611 -0.42786762
vn 0.38267297 0.90458450 -0.18785177
vn -6.8750238e-2 0.96798952 -0.24139116
vn 0.28208988 0.92697854 0.24725712
vn 1.2454678e-2 0.99260702 0.12073184
vn 6.6812736e-2 0.89150151 0.44806374
vn -0.13626696 0.84843360 -0.51146040
vn 0.29527618 0.84474453 -0.44633917
vn 6.3513873e-2 0.98017109 -0.18769823
g sphere2_default
usemtl default
s 1
f 1//1 84//84 2//2
f 1//1 94//94 90//90 23//23 12//12
f 2//2 84//84 3//3
f 2//2 96//96 94//94 1//1
f 3//3 84//84 4//4
f 3//3 98//98 96//96 2//2
f 4//4 15//15 98//98 3//3
f 4//4 84//84 5//5
f 5//5 16//16 15//15 4//4
f 5//5 84//84 6//6
f 6//6 17//17 16//16 5//5
f 6//6 84//84 7//7
f 7//7 18//18 17//17 6//6
f 7//7 84//84 8//8
f 8//8 19//19 18//18 7//7
f 8//8 84//84 9//9
f 9//9 20//20 19//19 8//8
f 9//9 84//84 10//10
f 10//10 21//21 20//20 9//9
f 10//10 84//84 11//11
f 11//11 22//22 21//21 10//10
f 11//11 84//84 12//12
f 12//12 23//23 22//22 11//11
f 12//12 84//84 1//1
f 13//13 96//96 98//98 14//14
f 13//13 97//97 95//95 101//101 102//102
f 14//14 98//98 15//15 99//99
f 14//14 99//99 97//97 13//13
f 16//16 28//28 27//27 15//15
f 17//17 29//29 28//28 16//16
f 18//18 30//30 29//29 17//17
f 19//19 31//31 30//30 18//18
f 20//20 93//93 32//32 31//31 19//19
f 21//21 92//92 93//93 20//20
f 22//22 91//91 92//92 21//21
f 23//23 90//90 95//95 24//24 35//35
f 23//23 91//91 22//22
f 24//24 89//89 86//86 35//35
f 24//24 95//95 97//97 25//25
f 25//25 88//88 89//89 24//24
f 25//25 97//97 99//99 26//26
f 26//26 87//87 88//88 25//25
f 27//27 26//26 99//99 15//15
f 27//27 39//39 38//38 87//87 26//26
f 28//28 40//40 39//39 27//27
f 29//29 41//41 40//40 28//28
f 30//30 42//42 41//41 29//29
f 31//31 43//43 42//42 30//30
f 32//32 44//44 43//43 31//31
f 32//32 93//93 92//92 33//33
f 33//33 45//45 44//44 32//32
f 33//33 92//92 91//91 34//34
f 34//34 46//46 45//45 33//33
f 35//35 34//34 91//91 23//23
f 35//35 86//86 47//47 46//46 34//34
f 36//36 48//48 59//59 47//47
f 36//36 89//89 88//88 37//37
f 37//37 49//49 48//48 36//36
f 37//37 88//88 87//87 38//38
f 38//38 50//50 49//49 37//37
f 39//39 51//51 50//50 38//38
f 40//40 52//52 51//51 39//39
f 41//41 53//53 52//52 40//40
f 42//42 54//54 53//53 41//41
f 43//43 55//55 54//54 42//42
f 44//44 56//56 55//55 43//43
f 45//45 57//57 56//56 44//44
f 46//46 58//58 57//57 45//45
f 47//47 59//59 58//58 46//46
f 47//47 86//86 89//89 36//36
f 48//48 60//60 71//71 59//59
f 49//49 61//61 60//60 48//48
f 50//50 62//62 61//61 49//49
f 51//51 63//63 62//62 50//50
f 52//52 64//64 63//63 51//51
f 53//53 65//65 64//64 52//52
f 54//54 66//66 65//65 53//53
f 55//55 67//67 66//66 54//54
f 56//56 68//68 67//67 55//55
f 57//57 69//69 68//68 56//56
f 58//58 70//70 69//69 57//57
f 59//59 71//71 70//70 58//58
f 60//60 72//72 83//83 71//71
f 61//61 73//73 72//72 60//60
f 62//62 74//74 73//73 61//61
f 63//63 75//75 74//74 62//62
f 64//64 76//76 75//75 63//63
f 65//65 77//77 76//76 64//64
f 66//66 78//78 77//77 65//65
f 67//67 79//79 78//78 66//66
f 68//68 80//80 79//79 67//67
f 69//69 81//81 80//80 68//68
f 70//70 82//82 81//81 69//69
f 71//71 83//83 82//82 70//70
f 72//72 85//85 83//83
f 73//73 85//85 72//72
f 74//74 85//85 73//73
f 75//75 85//85 74//74
f 76//76 85//85 75//75
f 77//77 85//85 76//76
f 78//78 85//85 77//77
f 79//79 85//85 78//78
f 80//80 85//85 79//79
f 81//81 85//85 80//80
f 82//82 85//85 81//81
f 83//83 85//85 82//82
f 95//95 90//90 101//101
f 100//100 90//90 94//94
f 100//100 102//102 101//101
f 101//101 90//90 100//100
f 102//102 100//100 94//94 96//96 13//13
