# Exported from Wings 3D 1.4.1
mtllib sAsteroid1.mtl
o sphere1
#182 vertices, 180 faces
v 0.30965237 0.95311316 -2.6805701e-2
v 0.18143048 0.90641712 0.27426124
v -0.16416573 0.90378644 0.28768094
v -0.33445524 0.90471215 4.0779837e-17
v -0.17139610 0.91197143 -0.29323750
v 0.13936286 0.95403888 -0.31448664
v 0.72319631 0.70431383 -0.12249302
v 0.44867896 0.65629365 0.42556698
v -0.23245052 0.86539395 0.49610504
v -0.85550545 0.81952349 3.7515090e-2
v -0.53270506 0.87165508 -0.51678303
v 0.25648121 0.74092224 -0.64970393
v 0.94065975 0.37084561 -0.13666820
v 0.58988901 0.31802809 0.56637068
v -0.15308014 0.63746802 0.59197147
v -0.92988180 0.31269391 0.10305029
v -0.83483019 0.60717303 -0.60197639
v 0.43146960 0.43311791 -0.79758066
v 0.99687189 -3.4182372e-2 -9.8181008e-2
v 0.59624771 -6.3818136e-2 0.64519539
v -0.15782969 -0.47791206 0.68340575
v -1.20829190 -6.7818444e-2 0.16759996
v -0.94262754 -0.33041079 -0.58043036
v 0.52934203 -0.12733331 -0.81290201
v 0.63521927 -0.31389257 7.8453070e-2
v 0.23871390 -0.31389257 0.76522052
v -0.67593296 -0.60790015 0.75652778
v -1.12088046 -0.39611929 0.15292146
v -0.75336272 -0.60384288 -0.45328103
v 0.23259224 -0.33076103 -0.59904987
v 0.40187172 -0.61612210 0.10595179
v 9.5144527e-2 -0.61489149 0.63326262
v -0.50837358 -0.63276879 0.63649568
v -0.79128938 -0.74003257 0.13026500
v -0.52661763 -0.83529391 -0.42495790
v 0.11810128 -0.64015244 -0.42485307
v 0.16844422 -0.84195110 8.5770496e-2
v -1.9399144e-2 -0.83415725 0.38606846
v -0.33321421 -0.84432920 0.37611935
v -0.38094100 -0.90372012 2.9020270e-2
v -0.19309763 -0.91151397 -0.27127770
v 0.12059535 -0.88945153 -0.26483918
v -5.8427251e-3 0.98546956 -1.3131144e-3
v -2.8934382e-2 -0.96791668 1.4949106e-2
v 0.28908319 0.92846053 0.14723160
v 0.26016170 0.96120049 -0.19818395
v 0.51954999 0.84837375 -7.5314124e-2
v 0.15979100 0.99131271 -7.0908177e-3
v 1.2247565e-2 0.89942344 0.33105248
v 0.31623688 0.79850214 0.35609163
v 9.0412406e-2 0.96154911 0.16452498
v -0.29350955 0.90312631 0.16945782
v -0.22614404 0.81179029 0.40504323
v -9.5670858e-2 0.95559639 0.16570679
v -0.29350955 0.90312631 -0.16945782
v -0.78525320 0.87458538 -9.3028287e-3
v -0.19134172 0.95559639 3.1225023e-17
v -1.6673924e-2 0.93216340 -0.35327870
v -0.39600453 0.95299814 -0.43423304
v -0.10092931 0.96154911 -0.16688859
v 0.11517552 0.89372198 -0.42243434
v 6.4120143e-2 0.99131271 -0.17279760
v 0.66015304 0.67752659 0.18318455
v 0.62860232 0.71324291 -0.42462518
v 0.85430380 0.54815273 -0.13821932
v 9.7980519e-2 0.66402749 0.53781372
v 0.53260405 0.49828113 0.49823813
v -0.52091308 0.68535763 0.30203188
v -0.28863241 0.78906974 0.57306334
v -0.78930195 0.82802421 -0.29924915
v -0.79176854 0.50906253 5.8885880e-2
v -9.4021773e-2 0.85240063 -0.67539907
v -0.60062188 0.79046991 -0.57896160
v 0.37606851 0.62522031 -0.74414919
v 0.84807766 0.34740677 0.26042369
v 0.82047078 0.37865855 -0.53065786
v 1.01005146 0.16334757 -0.13201485
v 0.36985033 0.38683882 0.66050275
v 0.60683739 0.13275376 0.58179393
v -0.90390317 0.52902589 0.36137712
v 9.6609455e-2 0.35540337 0.59249072
v -1.17207744 0.37984276 -0.21923916
v -0.99812135 0.11967656 0.11777176
v 1.6996277e-3 0.62691548 -0.77051446
v -1.04572033 0.20645859 -0.64050038
v 0.52626429 0.20218773 -0.84392424
v 0.87720854 -3.7530777e-2 0.32725618
v 0.87326470 -3.3066237e-2 -0.52317502
v 0.83551404 -0.18158520 -9.0884111e-3
v 0.35364044 -0.11115544 0.75867549
v 0.41466539 -0.18158520 0.71984283
v -1.07073394 -0.13754693 0.45274940
v -0.54265328 -0.55861723 0.73994039
v -1.20841566 -0.10119384 -0.30523411
v -1.19549864 -0.33737825 0.16846513
v 0.22798381 -0.12903334 -0.86840573
v -0.84993849 -0.46940131 -0.60053873
v 0.38959270 -0.19198468 -0.71781245
v 0.52193202 -0.31389257 0.47089161
v 0.52193202 -0.31389257 -0.31398547
v 0.50522896 -0.46613614 0.10763356
v -1.4508859e-2 -0.57926844 0.82965046
v 0.14845071 -0.46613614 0.72559163
v -0.98600706 -0.53816107 0.51289371
v -0.68547622 -0.67539034 0.72048663
v -1.03568090 -0.57907276 -0.23186356
v -0.99974245 -0.65403359 0.15509442
v -0.18751191 -0.67249859 -0.69249288
v -0.61537106 -0.76122341 -0.50124107
v 0.14864605 -0.48516093 -0.50470755
v 0.31191029 -0.61489149 0.40799302
v 0.32493077 -0.61981393 -0.19945299
v 0.28147614 -0.74165663 0.10090647
v -0.20832755 -0.61489149 0.70835248
v 3.0064062e-2 -0.73673419 0.52053994
v -0.71486121 -0.68640068 0.42092527
v -0.43360101 -0.75116902 0.51662132
v -0.70872183 -0.82055518 -0.12677234
v -0.59328375 -0.83777799 8.0203224e-2
v -0.18160289 -0.69132312 -0.48688020
v -0.34187167 -0.84270043 -0.33943025
v 0.12130504 -0.78070363 -0.34955402
v 0.10254263 -0.83093059 0.26812192
v 0.18500562 -0.86210602 -0.11339867
v 8.7177942e-2 -0.91621691 5.3816782e-2
v -0.19096692 -0.83093059 0.43757973
v -2.5853545e-2 -0.90965366 0.22849303
v -0.40191581 -0.87161841 0.22832544
v -0.19983463 -0.91621691 0.21952357
v -0.31935515 -0.91230623 -0.15038667
v -0.20870235 -0.94903315 8.9694636e-3
v -2.5943271e-2 -0.90279383 -0.32265296
v -9.5670858e-2 -0.95559639 -0.16570679
v 7.8310229e-2 -0.94903315 -0.15673732
v 0.17030791 0.97306390 0.10574398
v 4.6259293e-17 0.94925302 0.22094238
v -0.19134172 0.94925302 0.11047119
v -0.19134172 0.94925302 -0.11047119
v -2.1033810e-2 0.97306390 -0.22566959
v 0.14927410 0.99687478 -0.11992561
v 5.2456685e-2 -0.89674704 0.18222690
v -0.13888503 -0.89674704 0.29269809
v -0.26078423 -0.92300003 0.14634905
v -0.19134172 -0.94925302 -0.11047119
v -1.3877788e-16 -0.94925302 -0.22094238
v 0.12189920 -0.92300003 -7.4593337e-2
v 0.47510113 0.82158651 0.16595049
v 4.8990260e-2 0.80068167 0.44044041
v -0.40867133 0.81549316 0.23594650
v -0.61294810 0.91819984 -0.20109219
v -0.12335773 0.90840378 -0.61196058
v 0.44355042 0.85730283 -0.31303333
v 0.77603019 0.52136550 0.22021769
v 0.14697078 0.50046066 0.61188000
v -0.61432080 0.51172379 0.35980860
v -1.01414393 0.61976639 -0.28631713
v 1.0289457e-2 0.74924788 -0.77286459
v 0.74447948 0.55708181 -0.49311092
v 0.90164051 0.14995395 0.28717634
v 0.39016633 0.14122851 0.69187838
v -1.05898865 0.10516967 0.40795968
v -1.22553812 0.14345860 -0.26797916
v 0.20880590 0.35060104 -0.85260489
v 0.88586515 0.16781211 -0.54943334
v 0.71527157 -0.18158520 0.40744373
v 0.22920203 -0.32261202 0.79328543
v -1.02064623 -0.37314520 0.47197791
v -1.07517160 -0.43958435 -0.31085946
v 8.4245568e-2 -0.42052436 -0.76096436
v 0.71527157 -0.18158520 -0.42562055
v 0.40329232 -0.46613614 0.46075246
v -0.12061769 -0.69161797 0.78562502
v -0.89261887 -0.67305277 0.46578769
v -0.88114241 -0.69840898 -0.16299969
v -9.7234046e-2 -0.74880164 -0.52723906
v 0.40329232 -0.46613614 -0.24548533
v 0.20034378 -0.73673419 0.34358007
v -0.20832755 -0.73673419 0.57952657
v -0.56452630 -0.79447351 0.32790559
v -0.51205372 -0.85221282 -0.15966190
v -0.10377308 -0.81416325 -0.40684231
v 0.25242567 -0.75642393 -0.15522133
vn 0.36876923 0.92776445 5.7117185e-2
vn 0.22279112 0.85851514 0.46186132
vn -0.20704809 0.87507031 0.43747347
vn -0.22693037 0.96844769 0.10301302
vn -0.11208482 0.99025842 -8.2615096e-2
vn 0.12244329 0.94384024 -0.30687659
vn 0.67847429 0.73452993 1.1765137e-2
vn 0.41030093 0.60927614 0.67855414
vn -0.17910639 0.85817724 0.48109534
vn -0.69324470 0.58100505 0.42643278
vn -0.35459094 0.76935692 -0.53137105
vn 0.34382613 0.79980998 -0.49202398
vn 0.92707049 0.37455882 -1.5684069e-2
vn 0.55446862 0.35459122 0.75288088
vn -0.21989673 0.27258633 0.93666543
vn -0.79486777 0.56687363 0.21642438
vn -0.53180435 0.38902408 -0.75222630
vn 0.34983521 0.30795902 -0.88474661
vn 0.89743012 -0.44115663 1.1862102e-4
vn 0.58782516 -7.5811719e-2 0.80542794
vn -0.28117836 0.44003032 0.85282592
vn -0.96616780 0.15056315 0.20940516
vn -0.54160941 -0.19726397 -0.81715737
vn 0.42811210 -0.46213739 -0.77662672
vn 0.66397668 -0.74768885 9.8156762e-3
vn 0.66108638 -0.63596959 0.39812998
vn -0.36518016 -3.0956381e-2 0.93042203
vn -0.85850032 -0.50195353 0.10497551
vn -0.41783925 -0.60304909 -0.67951612
vn 0.56279150 -0.72102838 -0.40420763
vn 0.79100943 -0.61120728 2.7013902e-2
vn 0.43182298 -0.76703557 0.47453698
vn -8.5803136e-2 -0.97965322 0.18143151
vn -0.35806560 -0.92608335 0.11899019
vn -0.10032411 -0.94670906 -0.30606702
vn 0.57662917 -0.57364151 -0.58175099
vn 0.65903902 -0.73141459 0.17521493
vn 0.27661796 -0.84571154 0.45634910
vn -0.16787909 -0.91150606 0.37546413
vn -0.28051379 -0.95876085 4.5712714e-2
vn -0.17260398 -0.90749079 -0.38297301
vn 0.54564028 -0.70259869 -0.45676227
vn -9.9301736e-2 0.99343603 5.6780374e-2
vn 9.1490155e-2 -0.98892882 0.11683042
vn 0.33868433 0.89603298 0.28708503
vn 0.28040919 0.94000408 -0.19432707
vn 0.52100527 0.85290104 3.3366635e-2
vn 0.11939231 0.98929659 8.3891226e-2
vn 2.8698340e-2 0.85423016 0.51910234
vn 0.34123587 0.72931507 0.59300727
vn 5.7340249e-2 0.96164959 0.26822034
vn -0.28936949 0.91699655 0.27455895
vn -0.16552575 0.90014621 0.40291192
vn -0.13023831 0.96520101 0.22677077
vn -0.15586413 0.98774619 -7.9896757e-3
vn -0.25702829 0.93338337 0.25046346
vn -0.25336315 0.96734151 7.5846994e-3
vn -2.9084367e-2 0.97719843 -0.21032674
vn -0.12431861 0.97715008 -0.17240242
vn -0.22140602 0.96422147 -0.14579552
vn 0.26135287 0.88059771 -0.39527504
vn -3.9945234e-2 0.99033486 -0.13282031
vn 0.62499621 0.68409073 0.37603140
vn 0.52207495 0.77759962 -0.35039488
vn 0.83929803 0.54360931 -8.2298472e-3
vn 0.26563334 0.65114735 0.71094730
vn 0.47097641 0.53469882 0.70162553
vn -0.58076540 0.64341180 0.49873119
vn -0.22994760 0.60740156 0.76038638
vn -0.64190537 0.75048701 -0.15724742
vn -0.75110740 0.54440461 0.37344518
vn 5.3987360e-2 0.79492131 -0.60430578
vn -0.45603097 0.56347405 -0.68886337
vn 0.36818642 0.54733751 -0.75157196
vn 0.82060428 0.35022794 0.45160714
vn 0.76692290 0.37316841 -0.52208677
vn 0.99268180 0.11999296 -1.3584524e-2
vn 0.17357118 0.28620984 0.94231469
vn 0.58072287 0.17088520 0.79596432
vn -0.67122327 0.62651729 0.39615074
vn -0.22247114 8.6983880e-2 0.97105118
vn -0.85684694 0.50778629 8.9254655e-2
vn -0.90844460 0.36245629 0.20821586
vn -5.9036154e-2 0.22828961 -0.97180172
vn -0.57274080 0.10149683 -0.81342877
vn 0.38493224 0.13880890 -0.91244685
vn 0.83006814 -0.30174647 0.46897330
vn 0.73848295 -0.51576348 -0.43431667
vn 0.61683398 -0.78699362 1.2525377e-2
vn 5.4693424e-2 0.35358272 0.93380292
vn 0.64177308 -0.52918372 0.55506027
vn -0.61661214 0.28062904 0.73555204
vn -0.30597714 0.53014319 0.79077569
vn -0.96307224 -8.7396417e-2 -0.25466394
vn -0.93374559 -0.31830001 0.16372013
vn 2.1392534e-2 -0.24653662 -0.96889734
vn -0.47561061 -0.42482646 -0.77027075
vn 0.45934088 -0.79920003 -0.38766645
vn 0.65641692 -0.64143903 0.39708033
vn 0.55782276 -0.76553893 -0.32059931
vn 0.79697754 -0.60397626 6.2832066e-3
vn 0.38960278 -0.47909972 0.78655777
vn 0.59151398 -0.68649743 0.42288591
vn -0.79079481 -0.27983886 0.54436548
vn -0.19090451 -0.92100033 0.33957895
vn -0.72822214 -0.63092487 -0.26763095
vn -0.62621201 -0.77566128 7.8791452e-2
vn 0.23148469 -0.68607891 -0.68971775
vn -0.31513800 -0.83582726 -0.44953403
vn 0.60125027 -0.64840706 -0.46697579
vn 0.65594933 -0.64902200 0.38535816
vn 0.76825880 -0.51567684 -0.37928329
vn 0.71747038 -0.69060827 9.1084954e-2
vn 0.15290668 -0.95411032 0.25747435
vn 0.31768895 -0.77666573 0.54393388
vn -0.23434973 -0.94517805 0.22741738
vn -0.21611798 -0.83192542 0.51107055
vn -0.35249285 -0.93430133 -5.3195950e-2
vn -0.32961229 -0.93764381 0.11036222
vn 0.27503835 -0.81287053 -0.51341544
vn -0.10924649 -0.89276893 -0.43706847
vn 0.55199931 -0.49055130 -0.67428198
vn 0.50604243 -0.79625592 0.33150802
vn 0.74173764 -0.66566986 -8.1907970e-2
vn 0.49066442 -0.84743596 0.20273313
vn 1.6604932e-2 -0.88105313 0.47272577
vn 0.21676283 -0.91656621 0.33603609
vn -0.25558509 -0.94110087 0.22137168
vn -9.2493749e-2 -0.96064182 0.26193930
vn -0.26152578 -0.95265272 -0.15510340
vn -0.18092768 -0.98218830 5.0708127e-2
vn 0.10080375 -0.81544946 -0.56998315
vn -8.7066644e-2 -0.98151641 -0.17042577
vn 0.34972289 -0.92776391 -0.13018462
vn 0.14713936 0.96347606 0.22374964
vn -1.0012086e-2 0.94977575 0.31277115
vn -0.24697808 0.95788082 0.14651334
vn -0.26577618 0.95681117 -0.11779396
vn -0.16367688 0.96577745 -0.20120587
vn 0.11445374 0.99111193 -6.7804806e-2
vn 0.43346414 -0.84920944 0.30158278
vn 1.9163010e-2 -0.93455631 0.35529888
vn -0.18705332 -0.96632517 0.17671083
vn -0.18685590 -0.97766059 -9.6253032e-2
vn 7.8387849e-2 -0.95441541 -0.28800445
vn 0.57741825 -0.81462587 5.4524027e-2
vn 0.49846963 0.79938218 0.33543429
vn 0.16308483 0.77881585 0.60568079
vn -0.32588479 0.86153260 0.38930795
vn -0.21441098 0.97645933 -2.3560875e-2
vn 8.3643569e-2 0.93927805 -0.33280699
vn 0.39624984 0.87151808 -0.28886382
vn 0.74360787 0.52446616 0.41470782
vn 0.23762017 0.50153189 0.83186683
vn -0.64378546 0.64852305 0.40615037
vn -0.79618938 0.60480267 -1.7210434e-2
vn -2.2220096e-2 0.49012650 -0.87136805
vn 0.68554859 0.56515111 -0.45894155
vn 0.86283718 0.15041835 0.48258296
vn 9.9768463e-2 0.13084589 0.98636991
vn -0.70683210 0.32415252 0.62873963
vn -0.96891670 0.24326034 -4.4998063e-2
vn -4.1998110e-2 0.10257767 -0.99383801
vn 0.82839087 0.11462855 -0.54829632
vn 0.65015244 -0.65405883 0.38666375
vn 0.24390176 0.15251051 0.95773299
vn -0.68215066 9.3880985e-2 0.72515987
vn -0.83488915 -0.46276622 -0.29800593
vn 0.16568021 -0.58825859 -0.79151873
vn 0.48323826 -0.83678265 -0.25744045
vn 0.70588451 -0.57563259 0.41276406
vn 0.34593528 -0.89737271 0.27395438
vn -0.46394389 -0.84505122 0.26579033
vn -0.61560372 -0.76393205 -0.19349387
vn 0.30051215 -0.83722726 -0.45688398
vn 0.70704414 -0.58815802 -0.39263053
vn 0.56122362 -0.75234425 0.34497273
vn 1.8460164e-2 -0.79034352 0.61238577
vn -0.33546326 -0.88898183 0.31173018
vn -0.24471215 -0.96604908 -8.2856129e-2
vn 0.13581706 -0.63674962 -0.75901492
vn 0.79015187 -0.55362661 -0.26297833
g sphere1_default
usemtl default
s 1
f 1//1 47//47 152//152 46//46
f 1//1 48//48 135//135 45//45
f 2//2 45//45 135//135 51//51
f 2//2 51//51 136//136 49//49
f 3//3 49//49 136//136 54//54
f 3//3 54//54 137//137 52//52
f 4//4 52//52 137//137 57//57
f 4//4 57//57 138//138 55//55
f 5//5 55//55 138//138 60//60
f 5//5 60//60 139//139 58//58
f 6//6 46//46 152//152 61//61
f 6//6 58//58 139//139 62//62
f 7//7 47//47 147//147 63//63
f 7//7 65//65 158//158 64//64
f 8//8 50//50 148//148 66//66
f 8//8 63//63 147//147 50//50
f 9//9 53//53 149//149 68//68
f 9//9 66//66 148//148 53//53
f 10//10 56//56 150//150 70//70
f 10//10 68//68 149//149 56//56
f 11//11 59//59 151//151 72//72
f 11//11 70//70 150//150 59//59
f 12//12 64//64 158//158 74//74
f 12//12 72//72 151//151 61//61
f 13//13 65//65 153//153 75//75
f 13//13 77//77 164//164 76//76
f 14//14 67//67 154//154 78//78
f 14//14 75//75 153//153 67//67
f 15//15 69//69 155//155 80//80
f 15//15 78//78 154//154 69//69
f 16//16 71//71 156//156 82//82
f 16//16 80//80 155//155 71//71
f 17//17 73//73 157//157 84//84
f 17//17 82//82 156//156 73//73
f 18//18 76//76 164//164 86//86
f 18//18 84//84 157//157 74//74
f 19//19 77//77 159//159 87//87
f 19//19 89//89 170//170 88//88
f 20//20 79//79 160//160 90//90
f 20//20 87//87 159//159 79//79
f 21//21 81//81 161//161 92//92
f 21//21 90//90 160//160 81//81
f 22//22 83//83 162//162 94//94
f 22//22 92//92 161//161 83//83
f 23//23 85//85 163//163 96//96
f 23//23 94//94 162//162 85//85
f 24//24 88//88 170//170 98//98
f 24//24 96//96 163//163 86//86
f 25//25 89//89 165//165 99//99
f 25//25 101//101 176//176 100//100
f 26//26 91//91 166//166 102//102
f 26//26 99//99 165//165 91//91
f 27//27 93//93 167//167 104//104
f 27//27 102//102 166//166 93//93
f 28//28 95//95 168//168 106//106
f 28//28 104//104 167//167 95//95
f 29//29 97//97 169//169 108//108
f 29//29 106//106 168//168 97//97
f 30//30 100//100 176//176 110//110
f 30//30 108//108 169//169 98//98
f 31//31 101//101 171//171 111//111
f 31//31 113//113 182//182 112//112
f 32//32 103//103 172//172 114//114
f 32//32 111//111 171//171 103//103
f 33//33 105//105 173//173 116//116
f 33//33 114//114 172//172 105//105
f 34//34 107//107 174//174 118//118
f 34//34 116//116 173//173 107//107
f 35//35 109//109 175//175 120//120
f 35//35 118//118 174//174 109//109
f 36//36 112//112 182//182 122//122
f 36//36 120//120 175//175 110//110
f 37//37 113//113 177//177 123//123
f 37//37 125//125 146//146 124//124
f 38//38 115//115 178//178 126//126
f 38//38 123//123 177//177 115//115
f 39//39 117//117 179//179 128//128
f 39//39 126//126 178//178 117//117
f 40//40 119//119 180//180 130//130
f 40//40 128//128 179//179 119//119
f 41//41 121//121 181//181 132//132
f 41//41 130//130 180//180 121//121
f 42//42 124//124 146//146 134//134
f 42//42 132//132 181//181 122//122
f 43//43 51//51 135//135 48//48
f 43//43 54//54 136//136 51//51
f 43//43 57//57 137//137 54//54
f 43//43 60//60 138//138 57//57
f 43//43 62//62 139//139 60//60
f 44//44 134//134 146//146 125//125
f 45//45 147//147 47//47 1//1
f 46//46 140//140 48//48 1//1
f 48//48 140//140 62//62 43//43
f 49//49 148//148 50//50 2//2
f 50//50 147//147 45//45 2//2
f 52//52 149//149 53//53 3//3
f 53//53 148//148 49//49 3//3
f 55//55 150//150 56//56 4//4
f 56//56 149//149 52//52 4//4
f 58//58 151//151 59//59 5//5
f 59//59 150//150 55//55 5//5
f 61//61 151//151 58//58 6//6
f 61//61 152//152 64//64 12//12
f 62//62 140//140 46//46 6//6
f 63//63 153//153 65//65 7//7
f 64//64 152//152 47//47 7//7
f 66//66 154//154 67//67 8//8
f 67//67 153//153 63//63 8//8
f 68//68 155//155 69//69 9//9
f 69//69 154//154 66//66 9//9
f 70//70 156//156 71//71 10//10
f 71//71 155//155 68//68 10//10
f 72//72 157//157 73//73 11//11
f 73//73 156//156 70//70 11//11
f 74//74 157//157 72//72 12//12
f 74//74 158//158 76//76 18//18
f 75//75 159//159 77//77 13//13
f 76//76 158//158 65//65 13//13
f 78//78 160//160 79//79 14//14
f 79//79 159//159 75//75 14//14
f 80//80 161//161 81//81 15//15
f 81//81 160//160 78//78 15//15
f 82//82 162//162 83//83 16//16
f 83//83 161//161 80//80 16//16
f 84//84 163//163 85//85 17//17
f 85//85 162//162 82//82 17//17
f 86//86 163//163 84//84 18//18
f 86//86 164//164 88//88 24//24
f 87//87 165//165 89//89 19//19
f 88//88 164//164 77//77 19//19
f 90//90 166//166 91//91 20//20
f 91//91 165//165 87//87 20//20
f 92//92 167//167 93//93 21//21
f 93//93 166//166 90//90 21//21
f 94//94 168//168 95//95 22//22
f 95//95 167//167 92//92 22//22
f 96//96 169//169 97//97 23//23
f 97//97 168//168 94//94 23//23
f 98//98 169//169 96//96 24//24
f 98//98 170//170 100//100 30//30
f 99//99 171//171 101//101 25//25
f 100//100 170//170 89//89 25//25
f 102//102 172//172 103//103 26//26
f 103//103 171//171 99//99 26//26
f 104//104 173//173 105//105 27//27
f 105//105 172//172 102//102 27//27
f 106//106 174//174 107//107 28//28
f 107//107 173//173 104//104 28//28
f 108//108 175//175 109//109 29//29
f 109//109 174//174 106//106 29//29
f 110//110 175//175 108//108 30//30
f 110//110 176//176 112//112 36//36
f 111//111 177//177 113//113 31//31
f 112//112 176//176 101//101 31//31
f 114//114 178//178 115//115 32//32
f 115//115 177//177 111//111 32//32
f 116//116 179//179 117//117 33//33
f 117//117 178//178 114//114 33//33
f 118//118 180//180 119//119 34//34
f 119//119 179//179 116//116 34//34
f 120//120 181//181 121//121 35//35
f 121//121 180//180 118//118 35//35
f 122//122 181//181 120//120 36//36
f 122//122 182//182 124//124 42//42
f 123//123 141//141 125//125 37//37
f 124//124 182//182 113//113 37//37
f 125//125 141//141 127//127 44//44
f 126//126 142//142 127//127 38//38
f 127//127 141//141 123//123 38//38
f 127//127 142//142 129//129 44//44
f 128//128 143//143 129//129 39//39
f 129//129 142//142 126//126 39//39
f 129//129 143//143 131//131 44//44
f 130//130 144//144 131//131 40//40
f 131//131 143//143 128//128 40//40
f 131//131 144//144 133//133 44//44
f 132//132 145//145 133//133 41//41
f 133//133 144//144 130//130 41//41
f 133//133 145//145 134//134 44//44
f 134//134 145//145 132//132 42//42
